<svg xmlns="http://www.w3.org/2000/svg" viewBox="0 0 750 500"><g id="freepik--background-complete--inject-65"><path d="M162.38,220.48a36,36,0,0,0,9.23,12.75c8.32,7.39,20.27,8.76,28.6,15.92.66,1.15,1.29,2.33,1.87,3.55l0,.07s0,0,0,0h0v0a.17.17,0,0,0,.15,0c0-.17-.08-.33-.12-.48-.08-.3-.16-.58-.25-.86s-.24-.8-.39-1.2c.05,0,0-.19-.08-.23-4-11.13-14.8-18.22-23.49-25.68-5-4.26-8.81-9.55-13.67-13.87-1.17-1-3-3.27-4.34-1.4C158.47,211.24,161.53,218.49,162.38,220.48Z" style="fill:#dbdbdb"></path><path d="M169.72,226.72c8.05,10.72,25,11.78,31.41,23.88.17.35.34.69.5,1s.23.49.33.74h0l.12.31,0,.07s0,0,0,0h0v0a.17.17,0,0,0,.15,0l.05,0a.12.12,0,0,0,0-.13c-.13-.4-.29-.8-.45-1.18a17.2,17.2,0,0,0-1.37-2.71,0,0,0,0,0,0,0,42.82,42.82,0,0,0-11.7-13.58c-6.05-4.84-12.26-9.25-18.25-14.25-.74-.62-3.14-3.49-4-2.13C165.52,220.55,168.79,225.48,169.72,226.72Zm-.78-1.95c-.39-.65-2.87-5.13-1.58-5.54.78-.24,3.29,2.63,3.73,3l5,3.91c3.52,2.73,7.06,5.44,10.57,8.17a57.86,57.86,0,0,1,11.47,11.39C190.08,237.11,175.25,235.35,168.94,224.77Z" style="fill:#fff"></path><path d="M242.38,321.15c.12.13.39.22.47,0,3.59-11.51,16.71-15.55,21-26.76a53.29,53.29,0,0,0,2.87-14.14,42.89,42.89,0,0,0,0-10.68c-.07-.47-.15-2.56-.83-3.06-5.25-3.77-10.93,14.77-12.06,17.66-4.43,11.26-8.49,21.55-10.86,33.22-.26,1.21-.49,2.44-.7,3.69C242.31,321.06,242.34,321.11,242.38,321.15Z" style="fill:#dbdbdb"></path><path d="M242.38,321.15c.14-.42.27-.84.41-1.25,3.2-7,8.39-12.92,12.92-19.2S263.2,287.8,264,280c.14-1.38.92-6.87-1.21-7.53-1.92-.58-3,4.56-3.43,5.65-3.08,8.08-6,16.11-9.68,23.95-2.37,5-4.79,10.06-6.65,15.29-.26,1.21-.49,2.44-.7,3.69C242.31,321.06,242.34,321.11,242.38,321.15Zm1.82-5.21c2.27-5.94,5.08-11.66,7.75-17.47,1.84-4,3.51-8,5-12.16.81-2.26,1.61-4.53,2.45-6.79.42-1.13.85-2.26,1.3-3.37.22-.56.91-2.45,1.77-2.11,2.31.9.46,16.86-8.79,28.32A89.74,89.74,0,0,0,244.2,315.94Z" style="fill:#fff"></path><path d="M243,295.59a.09.09,0,0,0,.1.09c.05,0,.1,0,.11-.1l.09-.88c.11-1.07.18-2.14.24-3.2,0-.19,0-.38,0-.58,0,0,.06-.06.07-.11.89-11.55,8.69-21.37,7.83-33.17a46.71,46.71,0,0,0-4.16-15.11c-.91-2.07-2.77-9.15-6-8.72-2.49.34-3.18,4.7-3.45,6.54-.88,5.84.24,12.05,1.07,17.83s1.92,11.26,2.89,16.89A95.84,95.84,0,0,1,243,290.61C243,292.25,243,293.92,243,295.59Z" style="fill:#dbdbdb"></path><path d="M243,295.59a.09.09,0,0,0,.1.09c.06-1,.13-1.92.2-2.87v1.89c.11-1.07.18-2.14.24-3.2,0-.54,0-1.08,0-1.63a130.42,130.42,0,0,1,3.51-19.08,27.27,27.27,0,0,0,.88-9.44c-.52-5.91-3.82-18.08-5.72-18.76s-1.16,3.49-1.11,4.48c.51,8,2.06,15.78,2.14,23.78,0,5.37,0,10.76,0,16.14-.12,1.21-.23,2.41-.3,3.62C243,292.25,243,293.92,243,295.59Zm.74-12c.14-5.18.22-10.36,0-15.52-.16-4.28-.72-8.52-1.25-12.77-.27-2.13-.52-4.25-.7-6.37-.05-.58-.74-5.23.09-5.49s1.85,2.94,2.11,3.79c1.19,4.11,2.29,8.34,3.07,12.56.82,4.47.05,8.51-1.11,12.84A95,95,0,0,0,243.74,283.56Z" style="fill:#fff"></path><path d="M229.48,373.55a.09.09,0,0,0,.12,0,.11.11,0,0,0,0-.14l-.38-.69c-.46-.84-.95-1.66-1.44-2.47l-.27-.44a.41.41,0,0,0,0-.11c-5.16-9-4.38-20.11-11-28.36a41.52,41.52,0,0,0-10.68-9c-1.71-1.07-6.65-5.35-8.79-3.42-1.66,1.51,0,5.07.76,6.56,2.3,4.74,6.25,8.74,9.78,12.58s7.08,7.32,10.64,11a84.65,84.65,0,0,1,8.7,10.84C227.81,371.08,228.64,372.31,229.48,373.55Z" style="fill:#dbdbdb"></path><path d="M229.48,373.55a.09.09,0,0,0,.12,0c-.44-.74-.88-1.48-1.3-2.22.32.47.63.94.95,1.39-.46-.84-.95-1.66-1.44-2.47-.27-.4-.54-.81-.8-1.22a115.79,115.79,0,0,1-7-15.81,24.62,24.62,0,0,0-4.11-7.39c-3.37-4.09-11.93-11.37-13.67-10.92s.9,3.15,1.44,3.85c4.39,5.6,9.47,10.58,13.56,16.42,2.75,3.94,5.46,7.9,8.17,11.87.52.94,1,1.89,1.61,2.81C227.81,371.08,228.64,372.31,229.48,373.55ZM224,364.32c-2.51-3.88-5.06-7.74-7.79-11.44-2.28-3.07-4.83-5.91-7.36-8.77-1.27-1.43-2.52-2.86-3.73-4.33-.33-.4-3.17-3.48-2.69-4.09s2.84,1.24,3.46,1.73c2.94,2.42,5.89,5,8.58,7.69,2.87,2.88,4.34,6.24,5.67,10A83.06,83.06,0,0,0,224,364.32Z" style="fill:#fff"></path><path d="M234,380.78a1.56,1.56,0,0,0,.43-.72c5.4-9.7,14-17.11,19.45-26.84a30.26,30.26,0,0,0,4.17-13.9c.05-2.1.26-9.36-2.17-10.61-7.3-3.79-18.83,37-22.15,51a2,2,0,0,0-.17.61C233.5,380.78,233.73,381,234,380.78Z" style="fill:#dbdbdb"></path><path d="M234,380.78c.31-.82.63-1.65,1-2.47,1.28-2.39,2.61-4.75,4.08-7,2.32-3.63,5.07-6.94,7.6-10.42a39.78,39.78,0,0,0,7.42-18.39c.19-1.45.95-5.52-.77-6.5-1.57-.88-2.51,2.07-2.94,3-6.06,13.27-11.25,27-16.49,40.65-.11.24-.21.46-.3.69C233.5,380.78,233.73,381,234,380.78Zm2.53-6.49c2.1-5.29,4.19-10.58,6.32-15.84,1.67-4.13,3.35-8.24,5.05-12.36.85-2,1.65-4.08,2.53-6.1.35-.79,1.66-3.89,2.58-3.24s.61,3.53.57,4.06c-.63,8.46-4.44,15.73-9.52,22.34A96.3,96.3,0,0,0,236.53,374.29Z" style="fill:#fff"></path><path d="M215.89,281.66a.43.43,0,0,0,.22.33.5.5,0,0,0,.55,0,.63.63,0,0,0,.21-.22.21.21,0,0,0,.1-.16c.68-6.81,3.56-15,4.48-21.79a53.62,53.62,0,0,0-.41-15.64,72.33,72.33,0,0,0-4.73-16.82c-1.1-2.55-3.37-8.83-6.7-9.44-6.84-1.29-1.17,19.45-.75,22C211.15,253.78,213.45,267.73,215.89,281.66Z" style="fill:#dbdbdb"></path><path d="M216.11,282a.5.5,0,0,0,.55,0c0-.5-.1-1-.14-1.51,0-2.95.06-5.91.25-8.87.3-4.81,1.28-9.57,1.42-14.4.26-8.4-4.53-30.47-8.12-30.07-1.88.21-.72,4.62-.54,5.73.75,4.4,2,8.68,2.73,13.1.73,4.63,1.19,9.3,1.66,14,.71,7.18,1.39,14.37,2.18,21.55C216.1,281.64,216.11,281.81,216.11,282Zm0-6.29c-.61-6.37-1.28-12.73-1.93-19.09-.45-4.4-1-8.8-1.72-13.15-.44-2.44-1-4.84-1.59-7.25-.27-1.17-.55-2.35-.75-3.54-.17-1-1.07-5.15.49-4.66s3.28,6.68,3.68,8.13c.64,2.36,1.26,4.73,1.79,7.12a57.46,57.46,0,0,1,1.53,14.38c-.19,4.82-1.15,9.57-1.38,14.4C216.15,273.25,216.1,274.47,216.08,275.7Z" style="fill:#fff"></path><path d="M177.09,326.81c13.19,1.73,26.09-5.51,41.16,4.25a.08.08,0,0,0,.12-.06.06.06,0,0,0,0-.07c-1.36-1.12-2.76-2.19-4.22-3.21A75.09,75.09,0,0,0,188.07,316a56.74,56.74,0,0,0-17-1.34c-2.9.24-9.6.24-11.45,2.65C155.65,322.49,174.69,326.5,177.09,326.81Z" style="fill:#dbdbdb"></path><path d="M173.63,321.84c7.35,3.13,15.84,2.05,23.61,2.77A64.19,64.19,0,0,1,213,327.89c1.81,1,3.6,2,5.39,3.11a.06.06,0,0,0,0-.07c-1.36-1.12-2.76-2.19-4.22-3.21l-.3-.11a79,79,0,0,0-15.34-6.68,82.38,82.38,0,0,0-22.7-4c-1.34,0-6.34-.92-7,.93S172.61,321.4,173.63,321.84Zm-4-3.85c.65-1.15,8.77-.46,12-.11a82,82,0,0,1,20.42,4.85,77.36,77.36,0,0,1,8.28,3.73,65.53,65.53,0,0,0-10.23-2.07c-7.23-.9-14.73-.18-21.85-1.68a23,23,0,0,1-5.41-1.81C172.16,320.56,169,319,169.62,318Z" style="fill:#fff"></path><path d="M151.38,278.65a61.53,61.53,0,0,0,9.17,11.12,60.22,60.22,0,0,0,23.89,13.88l.48.15c.35.3.71.59,1.09.86l.25.2.06,0h0a.12.12,0,0,0,.09-.2c-.35-.43-.72-.87-1.07-1.31-7.3-9-12.94-19.1-21.58-27-1.89-1.73-13.81-13.4-16.44-7.5C146.11,271.61,150.05,276.6,151.38,278.65Z" style="fill:#dbdbdb"></path><path d="M154.65,279c4.28,5.73,10.64,10.42,16.24,14.82a164.07,164.07,0,0,0,13.55,9.87c.38.25.77.49,1.16.73.13.1.27.19.41.28a1.78,1.78,0,0,0,.31.23h0a.12.12,0,0,0,.09-.2c-.35-.43-.72-.87-1.07-1.31l-1.08-.76a134.25,134.25,0,0,1-12.77-14.15c-2.19-2.67-4.44-5.28-6.88-7.72s-4.75-5-7.58-6.76c-1.23-.78-3.71-2.28-4.55-.25C151.78,275.45,153.75,277.74,154.65,279Zm1.72-4.59c3.35,2.1,6.32,5.36,9,8.21s5,5.64,7.39,8.55a119.8,119.8,0,0,0,7.95,9.06c-4.28-3-8.52-6-12.59-9.32-3.18-2.6-6.29-5.29-9.27-8.11a30.69,30.69,0,0,1-4.23-4.73,19.07,19.07,0,0,1-1.2-1.91C152.37,274,154.86,273.42,156.37,274.37Z" style="fill:#fff"></path><path d="M186.68,209.85c.09.18.19.33.27.5a.34.34,0,0,0,.58,0,.33.33,0,0,0,0-.36c-.15-.31-.31-.62-.47-.93h0c-.13-.25-.25-.49-.37-.74a15.23,15.23,0,0,1-.23-1.53c-.63-5.54.94-12,1.16-17.35a73,73,0,0,0-.59-14.63,36.07,36.07,0,0,0-4.91-13.94c-.73-1.13-2.4-4.11-4.21-3.69-2.29.54-2.17,5.69-2.36,7.22a60.3,60.3,0,0,0,.29,16C177.41,191,181.6,200.52,186.68,209.85Z" style="fill:#dbdbdb"></path><path d="M185.92,207.48a20.47,20.47,0,0,0,.76,2.37c.09.18.19.33.27.5a.34.34,0,0,0,.58,0c-.06-.13-.11-.26-.16-.39-.09-.3-.19-.6-.29-.9h0c-.22-.75-.42-1.5-.6-2.27a47.93,47.93,0,0,1-1.14-8.39c-.27-4.92-.35-9.85-.79-14.75-.23-2.46-2-21.39-6.19-19.81-.8.29-.7,1.61-.75,2.22a33,33,0,0,0,.39,6.51c.64,5,1.47,10,2.45,14.9A139.49,139.49,0,0,0,185.92,207.48Zm-4.43-17.35c-.93-4.32-1.71-8.67-2.38-13-.33-2.12-.67-4.26-.88-6.41-.11-1.06-.32-6.05.65-6.19,1.43-.19,3.17,6.4,3.56,8.24.45,2.11.79,4.22,1.08,6.35.57,4.28.85,8.6,1,12.92.18,3.82.13,8.06.71,12.14A141.24,141.24,0,0,1,181.49,190.13Z" style="fill:#fff"></path><path d="M193.1,275.43l.48.29a.34.34,0,0,0,.34-.6l-.86-.56h0l-.7-.45a14.31,14.31,0,0,1-1-1.22c-3.33-4.47-5.2-10.83-7.7-15.58a73,73,0,0,0-7.86-12.36,36,36,0,0,0-11.24-9.6c-1.19-.61-4.14-2.35-5.49-1.07-1.71,1.61,1,6,1.58,7.43A60.08,60.08,0,0,0,169,255.38C175.63,263.79,184,269.9,193.1,275.43Z" style="fill:#dbdbdb"></path><path d="M191.25,273.76a20.81,20.81,0,0,0,1.85,1.67l.48.29a.34.34,0,0,0,.51-.27c-.12-.09-.23-.17-.33-.26l-.7-.63h0c-.57-.54-1.12-1.09-1.66-1.67a47.52,47.52,0,0,1-5.2-6.68c-2.7-4.12-5.24-8.34-8.09-12.36-1.42-2-12.43-17.52-15.29-14-.54.65.21,1.74.47,2.3a33,33,0,0,0,3.6,5.43q4.59,6,9.6,11.66A139.07,139.07,0,0,0,191.25,273.76ZM178.71,261q-4.46-4.91-8.6-10.08c-1.35-1.67-2.72-3.36-4-5.11-.63-.86-3.32-5.07-2.54-5.68,1.13-.88,5.95,4,7.21,5.34,1.44,1.6,2.8,3.26,4.12,4.95,2.64,3.42,5.05,7,7.38,10.65,2.07,3.22,4.16,6.92,6.71,10.15A139.87,139.87,0,0,1,178.71,261Z" style="fill:#fff"></path><path d="M178.68,297.64a270.47,270.47,0,0,0,23.78,18.91c6.44,4.51,13,9.08,18.27,14.95,6.32,7,11,16.8,13.08,26.82q.21-6.22.27-12.49c.08-8.51,0-17.13-1.85-25.47-.18-.83-.41-1.64-.62-2.45a.25.25,0,0,1-.15-.12,102.57,102.57,0,0,0-18.09-24.71,83.5,83.5,0,0,0-14.92-7.46c-5.35-2.09-10.52-4.14-15.23-7.48-.27-.19-.05-.63.25-.46,6.91,3.86,16,5.66,23.51,9.36-1-.85-1.93-1.68-2.93-2.51-9.49-7.88-20.53-14.55-24.91-26.7-.15-.41.47-.57.64-.18C185.24,270.7,199.84,277.9,210,287c7.52,6.73,14.8,14.67,19.33,23.85a164.15,164.15,0,0,0-7.37-15.73c-16-31-30.94-62.68-38.1-97-.07-.34.44-.49.52-.15,8.54,36.64,26.82,69,43.27,102.4l.54,1.15a68.75,68.75,0,0,1-.09-16.71.22.22,0,0,1,.43,0c.27,7.89,1.79,15.49,2.61,23.28a71,71,0,0,1,4.49,15.24,116.94,116.94,0,0,1,1.25,19.06c1.58-8.88,3.26-17.75,4.2-26.77a311.28,311.28,0,0,0,1.7-41.08c0-.19.29-.19.3,0a258.69,258.69,0,0,1,0,42.85c-1.11,12.08-2.59,24.69-6.3,36.36-.28,15.06-1.06,30.6-5.3,45a.55.55,0,0,1-1.06-.27c.46-3,.84-6.07,1.2-9.09-1.44-5.08-2-10.38-3.7-15.44A79.66,79.66,0,0,0,219.72,357c-.25-.39.33-.73.6-.37,5,6.84,10.28,16.07,12,25.19q.63-6.65,1-13.27c-1.73-14.71-7.12-29.4-18-39.63-5.59-5.26-12-9.51-18.13-14.06a167,167,0,0,1-18.94-16.82A.29.29,0,0,1,178.68,297.64Z" style="fill:#dbdbdb"></path><rect x="220.75" y="381.17" width="25.23" height="35.85" transform="translate(466.72 798.2) rotate(180)" style="fill:#c7c7c7"></rect><path d="M581.53,189.39a39,39,0,0,1-8.72,14.66c-8.26,8.8-21,11.45-29.32,20-.6,1.29-1.17,2.63-1.67,4a.11.11,0,0,0,0,.07s0,0,0,0h0s0,0,0,0a.17.17,0,0,1-.16.05,4.51,4.51,0,0,1,.09-.53c0-.33.11-.64.18-1s.19-.89.3-1.33c0,0,0-.22.06-.26,3.28-12.42,14.21-21.13,22.87-30,4.95-5.09,8.57-11.18,13.4-16.31,1.15-1.23,2.94-3.83,4.55-1.94C584.85,179,582.25,187.15,581.53,189.39Z" style="fill:#dbdbdb"></path><path d="M576.82,188c-1.05-1.38-3.37,2-4.1,2.69-6,6-12.26,11.36-18.32,17.18-4.93,4.75-8.83,9.76-11.31,15.81,0,0,0,0,0,0a17.91,17.91,0,0,0-1.22,3.06c-.14.43-.27.87-.37,1.32a.14.14,0,0,0,0,.14l.05,0a.17.17,0,0,0,.16-.05s0,0,0,0h0s0,0,0,0a.11.11,0,0,1,0-.07l.09-.35h0c.08-.28.18-.55.27-.83s.29-.78.44-1.17c5.71-13.69,23.94-16.5,31.59-28.86C575.1,195.41,578.15,189.76,576.82,188ZM545.4,220.07a61.84,61.84,0,0,1,11.27-13.42c3.52-3.3,7.07-6.56,10.61-9.86l5-4.7c.44-.41,2.87-3.75,3.73-3.56,1.44.3-.81,5.38-1.17,6.13C569.09,206.69,553.25,210.05,545.4,220.07Z" style="fill:#fff"></path><path d="M505,305.91c-.12.15-.39.29-.51,0-5-12.08-19.56-15.16-25.32-26.84a58.49,58.49,0,0,1-4.48-15,46.63,46.63,0,0,1-1.08-11.53c0-.51-.09-2.78.61-3.39,5.3-4.58,13.23,14.88,14.74,17.9,5.88,11.73,11.28,22.44,15,34.81.4,1.28.77,2.59,1.12,3.91C505.06,305.82,505,305.86,505,305.91Z" style="fill:#dbdbdb"></path><path d="M505.05,305.78c-.35-1.32-.72-2.63-1.12-3.91-2.52-5.47-5.63-10.69-8.67-15.87-4.76-8.1-8.69-16.48-12.8-24.91-.55-1.14-2.24-6.58-4.26-5.76-2.23.91-.86,6.76-.57,8.24,1.62,8.37,5.43,15.17,11,21.57s11.69,12.18,15.83,19.47c.19.43.37.86.56,1.3C505,305.86,505.06,305.82,505.05,305.78Zm-14.12-19c-11.11-11.47-14.67-28.52-12.26-29.72.89-.44,1.83,1.52,2.12,2.11.59,1.16,1.16,2.33,1.73,3.51,1.13,2.36,2.21,4.73,3.31,7.09q3,6.46,6.61,12.64c3.45,6,7.05,11.92,10.07,18.11A98.21,98.21,0,0,0,490.93,286.73Z" style="fill:#fff"></path><path d="M501.82,278.37a.11.11,0,0,1-.1.12c-.05,0-.11,0-.13-.11l-.18-.93c-.22-1.15-.4-2.29-.57-3.43,0-.21-.06-.42-.08-.63,0,0-.07-.06-.08-.11-2.1-12.39-11.48-22.23-11.7-35.06a50.34,50.34,0,0,1,3-16.72c.78-2.32,2.09-10.16,5.59-10,2.73.12,3.9,4.77,4.37,6.73,1.52,6.21.92,13,.59,19.35s-1,12.35-1.47,18.53a103.4,103.4,0,0,0,.25,16.89C501.47,274.78,501.64,276.57,501.82,278.37Z" style="fill:#dbdbdb"></path><path d="M501.32,273c-.19-1.3-.42-2.59-.68-3.88-.52-5.81-1.06-11.62-1.53-17.44-.69-8.64.21-17.24,0-25.88,0-1.07.46-5.71-1.63-4.73s-4.36,14.38-4.34,20.82A29.73,29.73,0,0,0,495,252a141.53,141.53,0,0,1,5.66,20.25c.07.59.13,1.18.19,1.77.17,1.14.35,2.28.57,3.43-.06-.68-.12-1.36-.19-2.05.18,1,.34,2.06.5,3.09a.11.11,0,0,0,.1-.12C501.64,276.57,501.47,274.78,501.32,273Zm-5-19.16c-1.67-4.55-2.9-8.85-2.45-13.76.43-4.62,1.21-9.31,2.09-13.85.19-.94.88-4.53,1.9-4.31s.64,5.29.64,5.92c0,2.32,0,4.63-.13,6.95-.16,4.64-.35,9.27-.1,13.91.3,5.59.9,11.18,1.56,16.75A102.64,102.64,0,0,0,496.34,253.84Z" style="fill:#fff"></path><path d="M524.05,361.23a.09.09,0,0,1-.13,0,.1.1,0,0,1,0-.14c.11-.27.22-.52.34-.78.42-1,.86-1.89,1.31-2.81.09-.17.16-.34.25-.51a.24.24,0,0,1,0-.12c4.7-10.18,2.76-22.14,9.06-31.7a45,45,0,0,1,10.65-10.78c1.75-1.32,6.66-6.43,9.16-4.55,1.94,1.47.46,5.48-.18,7.16-2,5.34-5.89,10-9.33,14.54s-6.93,8.6-10.41,12.89A92.12,92.12,0,0,0,526.39,357C525.61,358.41,524.83,359.82,524.05,361.23Z" style="fill:#dbdbdb"></path><path d="M526.39,357c.52-1,1-2.12,1.46-3.2,2.54-4.54,5.08-9.09,7.66-13.6,3.85-6.72,8.85-12.59,13-19.06.52-.81,3.22-4,1.18-4.3S539.27,325.25,536,330a26.58,26.58,0,0,0-3.72,8.38,124.26,124.26,0,0,1-6.05,17.76c-.24.47-.49.93-.74,1.4-.45.92-.89,1.85-1.31,2.81l.89-1.6c-.39.84-.79,1.68-1.19,2.52a.09.09,0,0,0,.13,0C524.83,359.82,525.61,358.41,526.39,357Zm6-16.61c1.06-4.2,2.32-8,5.13-11.36,2.65-3.19,5.58-6.25,8.52-9.15.62-.59,2.93-2.88,3.57-2.2s-2.19,4.21-2.51,4.67c-1.15,1.71-2.37,3.38-3.6,5.05-2.45,3.33-4.93,6.65-7.09,10.19-2.59,4.26-5,8.68-7.29,13.11A92.49,92.49,0,0,0,532.39,340.42Z" style="fill:#fff"></path><path d="M519.88,369.49a1.68,1.68,0,0,1-.53-.74c-6.79-9.94-16.8-17.11-23.63-27.08a32.74,32.74,0,0,1-5.87-14.6c-.26-2.26-1.2-10.09,1.31-11.67,7.51-4.8,23.94,38.11,28.9,52.88a2.4,2.4,0,0,1,.24.65C520.41,369.43,520.18,369.66,519.88,369.49Z" style="fill:#dbdbdb"></path><path d="M520.3,368.93c-.12-.24-.25-.48-.38-.72-7-14.21-13.95-28.55-21.79-42.28-.56-1-1.86-4.06-3.47-2.95-1.77,1.22-.54,5.54-.2,7.09a43.17,43.17,0,0,0,9.82,19.13c3.07,3.52,6.36,6.81,9.22,10.51,1.81,2.33,3.48,4.75,5.1,7.21.43.85.86,1.71,1.28,2.57C520.18,369.66,520.41,369.43,520.3,368.93Zm-13-17.5c-6.13-6.63-11-14.11-12.47-23.18-.1-.58-.63-3.73.22-4.45s2.65,2.43,3.1,3.25c1.15,2.1,2.22,4.22,3.33,6.34,2.24,4.28,4.46,8.55,6.66,12.85q4.23,8.22,8.37,16.49A104.45,104.45,0,0,0,507.29,351.43Z" style="fill:#fff"></path><path d="M529.74,260.68a.47.47,0,0,1-.21.38.55.55,0,0,1-.59,0,.59.59,0,0,1-.26-.21.25.25,0,0,1-.12-.17c-1.41-7.29-5.31-15.88-7-23.1a57.17,57.17,0,0,1-1.09-16.92A78.22,78.22,0,0,1,524,202c.93-2.85,2.77-9.86,6.3-10.85,7.27-2.05,3.17,20.89,3,23.63C532.13,230.11,531,245.4,529.74,260.68Z" style="fill:#dbdbdb"></path><path d="M529.49,260.48c.15-7.83.18-15.66.25-23.49,0-5.08.08-10.17.43-15.24.31-4.84,1.28-9.59,1.66-14.42.09-1.22.9-6.09-1.14-6.13-3.92-.09-6.93,24.22-5.84,33.27.63,5.19,2.15,10.23,2.95,15.4.5,3.18.81,6.37,1.13,9.56,0,.54,0,1.1,0,1.64a.55.55,0,0,0,.59,0C529.52,260.86,529.51,260.68,529.49,260.48Zm-1-10.16c-.73-5.18-2.22-10.23-2.9-15.42a62.26,62.26,0,0,1,.25-15.67c.34-2.64.77-5.25,1.23-7.86.3-1.61,1.61-8.5,3.18-9.15s1.07,3.87,1,5c-.1,1.31-.29,2.61-.47,3.9-.39,2.66-.77,5.31-1,8-.41,4.78-.52,9.58-.58,14.37-.08,6.93-.18,13.87-.21,20.8C528.81,252.94,528.63,251.63,528.46,250.32Z" style="fill:#fff"></path><path d="M576.05,305.64c-14.07,3.16-28.71-3.4-44,8.62,0,.05-.12,0-.13-.06s0-.06,0-.07c1.36-1.34,2.77-2.64,4.24-3.88a81.21,81.21,0,0,1,27-15.23,61.25,61.25,0,0,1,18.2-3.11c3.16,0,10.38-.68,12.62,1.75C598.78,298.88,578.62,305.07,576.05,305.64Z" style="fill:#dbdbdb"></path><path d="M584.14,295.17c-.9-1.93-6.21-.49-7.65-.31a89.07,89.07,0,0,0-24.12,6.52,86.37,86.37,0,0,0-15.92,8.72l-.31.15c-1.47,1.24-2.88,2.54-4.24,3.88,0,0,0,0,0,.07,1.83-1.34,3.66-2.63,5.52-3.89a70.18,70.18,0,0,1,16.67-5.07c8.33-1.54,17.6-1.21,25.23-5.31C580.36,299.36,585,297,584.14,295.17Zm-4.08,3.67a25,25,0,0,1-5.66,2.49c-7.55,2.31-15.72,2.27-23.43,3.95a69.84,69.84,0,0,0-10.85,3.24,83.53,83.53,0,0,1,8.58-4.85,88.78,88.78,0,0,1,21.57-7.23c3.47-.69,12.17-2.24,13-1.06S580.76,298.41,580.06,298.84Z" style="fill:#fff"></path><path d="M599.1,251.12A66.4,66.4,0,0,1,590.28,264a65.27,65.27,0,0,1-24.43,17.32l-.51.21c-.35.35-.71.71-1.09,1l-.25.23-.06.05h0a.12.12,0,0,1-.12-.2c.34-.5.69-1,1-1.52,7-10.45,12.11-21.9,20.67-31.28,1.88-2.05,13.6-15.82,17-9.71C604.1,243,600.34,248.78,599.1,251.12Z" style="fill:#dbdbdb"></path><path d="M597.42,245.93c-1.11-2.11-3.63-.25-4.89.71-2.88,2.2-5.21,5.28-7.52,8s-4.57,5.91-6.67,9c-3.92,5.74-7.76,11.43-12.41,16.53-.36.32-.73.61-1.1.93-.33.51-.68,1-1,1.52a.12.12,0,0,0,.12.2h0a2.12,2.12,0,0,0,.31-.28c.15-.12.29-.23.42-.35.39-.29.8-.59,1.18-.9a179.93,179.93,0,0,0,13.67-12c5.61-5.3,12-11,16.08-17.6C596.45,250.37,598.36,247.7,597.42,245.93Zm-.83,2.66a16.55,16.55,0,0,1-1.11,2.18,33.06,33.06,0,0,1-4.1,5.52c-2.93,3.35-6,6.55-9.22,9.67-4.06,4-8.35,7.67-12.68,11.3a129.37,129.37,0,0,0,7.7-10.56c2.29-3.38,4.59-6.78,7.15-10,2.66-3.34,5.55-7.16,9-9.75C594.83,245.81,597.58,246.21,596.59,248.59Z" style="fill:#fff"></path><path d="M554.25,180.29c-.08.19-.17.37-.24.56a.38.38,0,0,1-.68-.32c.13-.34.27-.69.41-1h0c.12-.28.22-.56.34-.84,0-.55.09-1.11.09-1.67.14-6.05-2.18-12.85-2.95-18.62a79.44,79.44,0,0,1-.79-15.86A39.18,39.18,0,0,1,554.36,127c.68-1.28,2.19-4.67,4.19-4.39,2.53.36,2.9,5.93,3.26,7.57a65.59,65.59,0,0,1,1.25,17.29C562.42,159.05,558.83,169.71,554.25,180.29Z" style="fill:#dbdbdb"></path><path d="M558.79,155.52c.58-5.43,1-10.88,1.19-16.33a34.83,34.83,0,0,0-.22-7.07c-.11-.66-.13-2.09-1-2.33-4.72-1.29-4.74,19.32-4.75,22,0,5.34.4,10.67.59,16a51.29,51.29,0,0,1-.41,9.18c-.12.84-.26,1.67-.43,2.51h0c-.07.34-.15.67-.22,1,0,.15-.09.29-.13.43a.36.36,0,0,0,.62-.07c.07-.19.16-.37.24-.56a23.44,23.44,0,0,0,.59-2.64A150.87,150.87,0,0,0,558.79,155.52ZM555.21,174c.24-4.46-.24-9-.42-13.18-.21-4.68-.33-9.37-.13-14.05.1-2.33.26-4.65.53-7,.25-2,1.48-9.31,3-9.24,1.07.05,1.33,5.46,1.31,6.62,0,2.34-.17,4.68-.32,7-.3,4.78-.71,9.55-1.29,14.31A150.42,150.42,0,0,1,555.21,174Z" style="fill:#fff"></path><path d="M553.74,251.72l-.49.37a.37.37,0,0,1-.58-.25.38.38,0,0,1,.15-.37l.88-.69h0l.71-.56a16.07,16.07,0,0,0,.92-1.4c3.16-5.16,4.56-12.21,6.79-17.59a80.14,80.14,0,0,1,7.28-14.11,39,39,0,0,1,11.2-11.46c1.23-.78,4.24-3,5.82-1.7,2,1.57-.46,6.58-1,8.18a65.58,65.58,0,0,1-7.6,15.58C571.46,237.45,563,244.87,553.74,251.72Z" style="fill:#dbdbdb"></path><path d="M570.1,232.57c3.22-4.4,6.31-8.91,9.22-13.52a36.21,36.21,0,0,0,3.35-6.22c.24-.63.94-1.88.28-2.53-3.42-3.49-13.79,14.33-15.13,16.64-2.68,4.62-5,9.43-7.53,14.14a51.08,51.08,0,0,1-5,7.73c-.52.67-1.06,1.32-1.63,2h0l-.7.75c-.1.11-.22.21-.33.31a.37.37,0,0,0,.58.25l.49-.37a24.65,24.65,0,0,0,1.83-2A150.73,150.73,0,0,0,570.1,232.57Zm-12.36,14.18c2.43-3.74,4.33-7.94,6.25-11.62,2.16-4.15,4.41-8.27,6.93-12.22,1.25-2,2.56-3.88,4-5.75,1.23-1.63,6-7.32,7.27-6.47.89.58-1.6,5.39-2.19,6.38-1.19,2-2.5,4-3.79,5.91q-4,6-8.31,11.73A152.72,152.72,0,0,1,557.74,246.75Z" style="fill:#fff"></path><path d="M571.48,274.29a292.63,292.63,0,0,1-23.83,22.76c-6.52,5.49-13.12,11.07-18.26,17.92-6.14,8.2-10.19,19.22-11.51,30.25-.55-4.47-1-9-1.51-13.47-.91-9.18-1.7-18.49-.49-27.68.11-.91.27-1.81.43-2.71a.25.25,0,0,0,.15-.14,111.26,111.26,0,0,1,17.11-28.46A91.6,91.6,0,0,1,549,263.25c5.58-2.77,11-5.49,15.72-9.57.27-.23,0-.68-.32-.47-7.08,4.85-16.69,7.68-24.47,12.41,1-1,1.92-2,2.92-3,9.47-9.44,20.75-17.71,24.29-31.27.12-.45-.57-.56-.71-.13-4.62,14.63-19.68,23.83-29.71,34.59-7.46,8-14.54,17.29-18.54,27.65a175.75,175.75,0,0,1,6.41-17.71c14.24-35.07,27.29-70.71,31.65-108.53,0-.37-.52-.48-.57-.11-5.64,40.41-22.21,77.1-36.7,114.81-.17.43-.32.86-.49,1.29a74.2,74.2,0,0,0-1.53-18,.24.24,0,0,0-.47,0c.48,8.54-.41,16.9-.53,25.39a76.82,76.82,0,0,0-3.36,16.9,125.69,125.69,0,0,0,.52,20.71c-2.58-9.44-5.26-18.85-7.16-28.5a335.58,335.58,0,0,1-5.85-44.19.17.17,0,0,0-.33,0A279.16,279.16,0,0,0,504,301.8c2.38,12.95,5.21,26.42,10.36,38.66,1.77,16.23,4.13,32.93,10.12,48.07a.59.59,0,0,0,1.11-.4c-.78-3.23-1.5-6.46-2.18-9.69,1.06-5.63,1.13-11.41,2.5-17a85.06,85.06,0,0,1,7.11-19c.23-.45-.44-.76-.69-.34-4.78,7.87-9.53,18.35-10.5,28.36-.88-4.73-1.69-9.47-2.39-14.23.42-16.05,4.8-32.44,15.54-44.55,5.52-6.23,12-11.43,18.2-17a179.75,179.75,0,0,0,18.81-20A.31.31,0,0,0,571.48,274.29Z" style="fill:#dbdbdb"></path><rect x="504.88" y="373.69" width="30.49" height="43.33" style="fill:#c7c7c7"></rect><path d="M85,272.88H71.36V260.23H85V246.58H97.66v13.65h13.65v12.65H97.66v13.65H85Zm10.85-1.8h13.65V262H95.86V248.38h-9V262H73.16v9.05H86.81v13.65h9Z" style="fill:#ebebeb"></path><path d="M652.34,226.4H638.69V213.75h13.65V200.1H665v13.65h13.65V226.4H665v13.65H652.34Zm10.85-1.8h13.65v-9H663.19V201.9h-9.05v13.65H640.49v9h13.65v13.65h9.05Z" style="fill:#ebebeb"></path><path d="M227.23,185.17H213.57V172.52h13.66V158.87h12.65v13.65h13.65v12.65H239.88v13.65H227.23Zm10.85-1.8h13.65v-9.05H238.08V160.67H229v13.65H215.38v9.05H229V197h9.05Z" style="fill:#ebebeb"></path></g><g id="freepik--Shadow--inject-65"><ellipse cx="375" cy="442.82" rx="151.33" ry="14.84" style="fill:#ebebeb"></ellipse></g><g id="freepik--Plants--inject-65"><path d="M89.81,361.29c-8,.28-17,.74-23.71-4.48-6.16-4.82-11.66-12-10.84-20.27.23-2.35.77-3.8,3.29-2.8,3.85,1.53,6.81,5.77,9.47,8.75a81.83,81.83,0,0,0,11.18,10.6c2.86,2.19,6,4.1,8.88,6.22.37.26.73.54,1.09.82l.42.31h.23a.38.38,0,0,1,.33.17.35.35,0,0,1,.06.14A.42.42,0,0,1,89.81,361.29Z" style="fill:#455a64"></path><path d="M90.21,360.76c-7.08-.12-14.73.2-20.39-4.61a32.87,32.87,0,0,1-6.58-8c-.82-1.34-3.27-5.31-2.26-6.89,1.85-2.86,10.29,8.8,11.45,9.92a34.5,34.5,0,0,0,15.65,8.12c.37.26.73.54,1.09.82a38.89,38.89,0,0,1-11.74-4.51c-5-3-7.83-7.44-11.76-11.57-.85-.9-3.41-3.91-4.38-2-.64,1.24,1.73,5.13,2.24,6a33,33,0,0,0,6.22,7.6c5.65,4.93,13.26,4.76,20.4,5.05A.35.35,0,0,1,90.21,360.76Z" style="fill:#fff"></path><path d="M94.26,366.2c-.07.31-.13.62-.2.94a0,0,0,0,1,0,0,.21.21,0,0,1-.14.16.35.35,0,0,1-.43-.16.34.34,0,0,1,0-.2.56.56,0,0,1,0-.12l.09-.28,0,0s0-.06,0-.09c-1.43-5.33-2-10.87-3.49-16.21-1.43-5.09-3.22-10.09-4.25-15.28-.66-3.28-2.93-19.72,4.31-17.67,3.21.91,5.41,5.56,6.63,8.34a33.83,33.83,0,0,1,2.66,11.81C100,347.47,96.29,356.59,94.26,366.2Z" style="fill:#455a64"></path><path d="M96.58,345.73a39.91,39.91,0,0,0-1.16-11.15c-.33-1.26-1.9-7.31-4-7.16-1.33.09-1.55,2.7-1.66,3.56-.46,3.66.72,7.4,1.43,11a150.34,150.34,0,0,1,2.66,21.95c-.06.47-.13.94-.18,1.4s-.1.78-.15,1.16c0,.14,0,.27,0,.4a2.79,2.79,0,0,0,0,.32.34.34,0,0,0,.42.16c0-.3.09-.6.13-.9,0,.25,0,.49,0,.74,0,0,0,0,0,0l.15-.76,0-.17c0-.42,0-.83,0-1.23C95.15,358.57,96.41,352.2,96.58,345.73Zm-2.45,16.6c-.2-4.31-.63-8.6-1.24-12.87C92.41,346,91.76,342.6,91,339.2a34.74,34.74,0,0,1-.92-5.82c-.07-1.5.15-7,3-3.61,2.06,2.5,2.56,7.81,2.81,10.87a57,57,0,0,1-.2,10.2C95.34,354.69,94.7,358.51,94.13,362.33Z" style="fill:#fff"></path><path d="M98.6,388.31h0a2,2,0,0,1-.3,0c-7.36-.37-17.18.32-23.31-4.55-4.52-3.61-9-10.72-7.54-16.76,1.63-6.8,10.82,1.37,13.25,3.33a226.3,226.3,0,0,1,18,17.57c0,.05.07.08.1.13v0C98.92,388.21,98.76,388.28,98.6,388.31Z" style="fill:#455a64"></path><path d="M98.85,388.1c-.42-.26-.85-.52-1.27-.8-4.85-3.05-9.57-6.31-14.11-9.79-1.14-.88-9.44-8.26-10.69-5.62-.75,1.6,2,4.84,2.86,5.94a23,23,0,0,0,5.6,5c4.91,3.06,10.87,3.72,16.42,5.2.27.05.53.12.79.19a.55.55,0,0,0,.14.09h0C98.76,388.27,98.91,388.21,98.85,388.1Zm-14.58-4.2a22.93,22.93,0,0,1-6.35-4.29c-1.24-1.18-5.6-5.59-4.44-7.4.62-1,1.13-.45,2.3.13a13.43,13.43,0,0,1,1.56.9c1.24.81,2.38,1.76,3.52,2.67,2,1.62,4.08,3.18,6.17,4.71,3.43,2.5,7,4.84,10.55,7.08C93.15,386.34,88.48,385.8,84.27,383.9Z" style="fill:#fff"></path><path d="M112.05,373.14a43.5,43.5,0,0,1-12.62,22.05.34.34,0,0,1-.14.08.34.34,0,0,1-.38-.14.31.31,0,0,1,0-.42l.37-.38c1.22-10,2.57-20,3.6-30,.24-2.36,2.09-17.43,6.72-15,2.86,1.52,3,7.69,3.29,10.47A43.65,43.65,0,0,1,112.05,373.14Z" style="fill:#455a64"></path><path d="M109.38,359.71c-.25-.84-.69-1.7-1.62-1.11-1.8,1.12-2.52,8.2-2.81,10.17-1.24,8.08-3.15,15.85-5.1,23.75-.16.66-.33,1.34-.49,2l-.45.6a.33.33,0,0,0,.38.14,1.52,1.52,0,0,1,.06-.2c.2-.26.41-.54.6-.81h0A51.49,51.49,0,0,0,107.24,380a48.58,48.58,0,0,0,2.15-9.9C109.74,367,110.32,362.75,109.38,359.71Zm-9.46,34c-.08.14-.18.26-.27.4.09-.28.17-.54.25-.81a145.08,145.08,0,0,0,4.51-18.39c.54-3.16.87-6.34,1.52-9.48.28-1.32.93-5.11,2-5.72s1.07.86,1.18,1.71c.08.61.08,1.73.09,2.3A50.83,50.83,0,0,1,99.92,393.71Z" style="fill:#fff"></path><path d="M100.65,416.79H99.17c0-1.3,0-2.6-.08-3.88-.18-5.24-.39-10.47-.7-15.7-.18-3-.39-5.95-.7-8.89a2.85,2.85,0,0,1,0-.29c0-.24-.06-.48-.08-.73s-.07-.51-.1-.77a63.39,63.39,0,0,0-5.06-19.24c-.94-2-2-4-3-6l-.31-.57a.6.6,0,0,0-.09-.15l-.32-.58-.25-.44c-3.41-6-7.31-11.73-11-17.5-1.06-1.65-2.12-3.31-3.16-5a2.38,2.38,0,0,1-.18-.3c-.09-.11-.16-.24-.24-.36-4.65-7.33-9.22-14.73-14-21.92-.19-.26.25-.5.43-.24,3.26,4.77,6.63,9.47,10,14.19l1.33,1.89,2.64,3.73c1.75,2.5,3.47,5,5.16,7.53,4.74,7.11,9.7,14.28,13.56,21.95.29.57.56,1.15.84,1.73.17.37.35.73.5,1.09s.38.84.57,1.26c3.27,7.51,4.43,15.24,5,23.21,0,.55.07,1.11.1,1.67,0,.25,0,.51.05.78s0,.27,0,.41,0,.35,0,.54h0c0,.12,0,.26,0,.4,0,.47,0,.95.06,1.43.22,5.24.35,10.47.47,15.69C100.52,413.44,100.59,415.12,100.65,416.79Z" style="fill:#455a64"></path><path d="M56.67,322c-4-5.43-9.2-16.62-3.26-22.44a6.33,6.33,0,0,1,8.43-.62c3.14,2.27,4.55,6.57,5.57,10.12,2.72,9.49,4.53,19.16,7.93,28.46a10.19,10.19,0,0,1,.37,1c.07.19-.24.27-.31.08s-.22-.6-.34-.91C68.64,333,61.45,328.42,56.67,322Z" style="fill:#455a64"></path><path d="M75.39,337.53a1.4,1.4,0,0,0-.1-.16,68.73,68.73,0,0,1-3.77-7,135.89,135.89,0,0,1-5.79-15.54c-.65-2-3.55-12-7.11-8-1.5,1.67-1.29,4.63-1,6.68a25,25,0,0,0,3.1,9.34c3.2,5.76,8.17,10.12,13.39,14,.23.19.47.36.71.54l.15.25a.7.7,0,0,0,.1.16.18.18,0,0,0,.09.08.23.23,0,0,0,.31-.14A.17.17,0,0,0,75.39,337.53Zm-1.57-1.1c-4.21-3.32-8.32-6.94-11.35-11.39a27.89,27.89,0,0,1-3.7-7.55,22.51,22.51,0,0,1-.8-3.66,16.27,16.27,0,0,1-.16-2.79c.06-2.05.91-4.29,2.12-4.5,1.5-.27,2,.6,3,2.32a17.61,17.61,0,0,1,.88,1.8,48.24,48.24,0,0,1,1.68,4.72c.83,2.64,1.68,5.26,2.63,7.86.64,1.76,1.33,3.51,2.08,5.22a68.29,68.29,0,0,0,4.42,8.59Z" style="fill:#fff"></path><path d="M660.87,337.15c-.66,5.37-1.69,10.7-2.78,16-.61,3-1.26,6-1.87,9-.67,3.32-1.65,6.7-.76,10h0a2,2,0,0,1,0,.47l0,.05a.4.4,0,0,1-.7-.12c0-.08,0-.15,0-.22l-.06-.07a13.54,13.54,0,0,1-1.16-2.79,71.22,71.22,0,0,1-2.67-7.77,67.54,67.54,0,0,1-2.61-16.59,56.37,56.37,0,0,1,1.56-14.93c1-3.91,2.32-9.73,5.23-12.72,2.64-2.7,4.84,1.63,5.6,3.82C662.33,326.33,661.5,332.06,660.87,337.15Z" style="fill:#455a64"></path><path d="M656.06,325.74c-2,0-3.38,6.33-4.08,9.07A54.26,54.26,0,0,0,650.3,348a70.88,70.88,0,0,0,4.06,23.43c.1.3.2.61.31.91l.05.07c0,.07,0,.14.07.22a.41.41,0,0,0,.7.12c-.13-.66-.23-1.31-.3-2s-.14-1.19-.18-1.78c-.54-6.43.39-13,1.2-19.39C657.16,342.11,658.66,325.75,656.06,325.74Zm-1.41,44.52c.1.88.24,1.74.4,2.59-.2-.62-.4-1.25-.59-1.87a78.23,78.23,0,0,1-3.7-20.67,55.81,55.81,0,0,1,.87-11.82,49.76,49.76,0,0,1,1.52-6.18c.27-.85,1.7-6.15,2.91-5.89.85.19,1.05,5,1.06,5.06,0,.95,0,1.91,0,2.88,0,2-.16,3.94-.33,5.9-.37,4.26-1,8.51-1.49,12.76C654.65,358.67,654,364.57,654.65,370.26Z" style="fill:#fff"></path><path d="M691.75,352c-3.6,7-9.66,12.4-15.93,17-3.35,2.47-6.82,4.78-10.23,7.16-2.86,2-6.32,4.12-8.84,6.81-.11.11-.23.23-.34.36a14.39,14.39,0,0,0-1.83,2.53.25.25,0,0,1-.17.11c0,.1-.07.2-.12.31s-.15.06-.14,0,0-.24,0-.35a0,0,0,0,1,0,0,.22.22,0,0,1,0-.27s0-.07.06-.11,0-.23,0-.34c1-8.21,6.76-16.51,11.61-22.83s10.85-11.9,18.34-14.79c1.89-.72,6.17-2.72,8.09-1.19C694.08,347.74,692.51,350.51,691.75,352Z" style="fill:#455a64"></path><path d="M686.19,352c-1.72-1.71-6.75,2.51-8,3.5a83.8,83.8,0,0,0-10.42,10.13c-5.32,5.9-10.06,12-13.3,19.24v0l-.17.22a2.27,2.27,0,0,0,0,.35l-.07.11a.24.24,0,0,0,0,.28c.09-.1.16-.2.25-.29.62-.77,1.29-1.52,2-2.26a3.89,3.89,0,0,1,.34-.36c4.69-5.06,10.24-9.32,15.57-13.75a77.82,77.82,0,0,0,10.37-10.08C683.48,358.19,687.62,353.47,686.19,352Zm-1.58,3.76c-4.24,7-11.6,12.19-17.85,17.32a84.81,84.81,0,0,0-11.85,11.26c3.14-6.36,7.65-12.08,12.3-17.32a108.56,108.56,0,0,1,8.46-8.7,44.19,44.19,0,0,1,5.13-4.11,17.55,17.55,0,0,1,3.47-1.87C686.66,351.67,685.34,354.58,684.61,355.79Z" style="fill:#fff"></path><path d="M653.44,402.58a.44.44,0,0,1-.37.2l.09.13a.13.13,0,0,1,0,.18.11.11,0,0,1-.17,0c-6.66-6.77-13.07-15-16.38-24a37,37,0,0,1-2.38-11.8c-.07-2.77-.22-8.33,2.14-10.34,4.76-4,9.09,13.12,9.74,15.71,1.18,4.71,1.95,9.52,3,14.26,1.19,5.18,2.76,10.27,4.32,15.35A.43.43,0,0,1,653.44,402.58Z" style="fill:#455a64"></path><path d="M653.44,402.58c-.26-.44-.51-.88-.75-1.33a80,80,0,0,1-8.57-23.05,73,73,0,0,0-3.16-12c-.39-.95-1.57-4.61-3.15-2.76-.81,1-.13,7.9.19,9.68a50.73,50.73,0,0,0,3.86,11.79,83.64,83.64,0,0,0,10.9,17.71c.13.17.25.33.38.48a.13.13,0,0,0,0-.18.62.62,0,0,1-.08-.12A.44.44,0,0,0,653.44,402.58Zm-9.66-14.75a59.34,59.34,0,0,1-4.57-11.45,43,43,0,0,1-1-4.8,27.63,27.63,0,0,1-.32-3.84c0-3.13.27-3.95.8-4.06.32-.06.77.28,1.7,2.15a21.51,21.51,0,0,1,1.33,3.81c.49,1.85.91,3.71,1.31,5.58.82,3.74,1.58,7.5,2.66,11.16a62.17,62.17,0,0,0,6.61,15A96.75,96.75,0,0,1,643.78,387.83Z" style="fill:#fff"></path><path d="M674.78,386.12a23.55,23.55,0,0,1-4.37,9.08c-3.95,5.45-9,10-13.31,15.14-.64.77-1.27,1.55-1.88,2.36-.06.09-.56,1.23-.55,1.13s.07-.45.22-1.19h0c.69-3.61,3-14.52,5.79-20.1a48.43,48.43,0,0,1,6.3-9.86c1.23-1.38,4.1-4.37,6.26-3.72C675.57,379.66,675.11,384.39,674.78,386.12Z" style="fill:#455a64"></path><path d="M671.26,383.92c-2.31-1.44-8.27,9.2-9.07,10.57a68,68,0,0,0-6.79,16.23c-.19.64-.35,1.27-.51,1.92s-.23,1.16-.23,1.19.5-1,.56-1.14.22-.27.32-.41c.51-.66,1-1.31,1.56-1.94,2.58-3.87,5.24-7.7,7.75-11.64a61.41,61.41,0,0,0,4.81-8.84C670,389.16,672.27,384.54,671.26,383.92Zm-.66,3c-3.29,9.26-10,16.55-15.11,24.77-.09.14-.17.26-.25.4.07-.24.13-.49.21-.72a76.84,76.84,0,0,1,5.43-13.52,74.56,74.56,0,0,1,4.57-7.62,39.27,39.27,0,0,1,2.85-4c.48-.52,1.84-1.91,2.3-1.67C671.26,384.92,670.81,386.3,670.6,386.91Z" style="fill:#fff"></path><path d="M698,309.73c-6.86,15.78-24.88,23.12-32.69,38.33l0,.08q-.36.69-.69,1.41a.32.32,0,0,1-.52.08.26.26,0,0,1,0-.26l.16-.34c1.22-9.49,5.12-19.25,9.65-27.61,3.94-7.28,9.34-14.08,16.83-17.9,1.84-.95,5.43-2.95,7.5-1.38S698.82,307.79,698,309.73Z" style="fill:#455a64"></path><path d="M691.79,310.41c-.87-.65-2.19.14-2.94.53a26.23,26.23,0,0,0-5.21,3.56,43.33,43.33,0,0,0-8.31,9.88,90.22,90.22,0,0,0-9.79,19.84c-.52,1.59-1,3.19-1.36,4.81,0,.2-.09.4-.14.6a.33.33,0,0,0,.53-.07c.2-.48.42-.92.65-1.38a.45.45,0,0,1,.06-.12,52.66,52.66,0,0,1,4.89-9c3-4.38,6.75-8.24,10.28-12.19C681.85,325.33,694.82,312.62,691.79,310.41Zm-1.1,3.65c-2.08,3.71-5.32,6.73-8.14,9.88s-5.73,6.33-8.53,9.55a60,60,0,0,0-6,8.21,47.84,47.84,0,0,0-3.76,7.59,66.65,66.65,0,0,1,2.69-7.89.16.16,0,0,1,0-.09,115.68,115.68,0,0,1,6.66-13.26c0-.05.06-.11.08-.16a54.17,54.17,0,0,1,7.6-10.61,30.86,30.86,0,0,1,5.41-4.59c2.26-1.47,4.23-2.41,4.79-1.69C691.91,311.5,691.32,313,690.69,314.06Z" style="fill:#fff"></path><path d="M674,328.22c-2.06,4.45-4,9-6,13.48-.92,2.12-1.83,4.25-2.73,6.36a.45.45,0,0,0-.06.12c-.33.76-.67,1.54-1,2.3-3,6.92-6.25,14-8.06,21.33a64.78,64.78,0,0,0-1.65,11.86q0,.61-.06,1.23v0c0,.22,0,.44,0,.67s0,.25,0,.37c-.13,3.46-.08,6.94,0,10.31.09,4.71.49,9.38.94,14a2,2,0,0,0,0,.41c0,.21,0,.42.05.64s0,.21,0,.32,0,.4,0,.6c.15,1.5.28,3,.41,4.51h-1.44a93.16,93.16,0,0,1-1.73-13.89,1.42,1.42,0,0,1,0-.29c0-.45-.06-.91-.07-1.36s-.06-1.11-.08-1.67c-.05-1.35-.08-2.69-.11-4-.14-7.69,0-15.71,1.65-23.26l.15-.62a2,2,0,0,1,.06-.26c0-.15.06-.3.1-.45l.19-.72c.11-.42.24-.84.36-1.26l.11-.37c2-6.58,5.1-13,7.93-19.15.53-1.14,1.05-2.26,1.59-3.38l.9-1.88c.46-.93.94-1.88,1.4-2.82a.16.16,0,0,1,0-.09c2.2-4.43,4.48-8.82,6.66-13.26C673.75,327.85,674.1,328,674,328.22Z" style="fill:#455a64"></path></g><g id="freepik--Icons--inject-65"><path d="M533.47,186.88H516.14V170.82h17.33V153.5h16v17.32h17.33v16.06H549.52V204.2h-16Zm13.77-2.29h17.32V173.1H547.24V155.78H535.75V173.1H518.43v11.49h17.32v17.32h11.49Z" style="fill:#FF7B54"></path><polygon points="176 90.73 176 106.79 193.33 106.79 193.33 124.12 209.38 124.12 209.38 106.79 226.7 106.79 226.7 90.73 209.38 90.73 209.38 73.42 193.33 73.42 193.33 90.73 176 90.73" style="fill:#FF7B54"></polygon></g><g id="freepik--earth-globe--inject-65"><path d="M520.34,239.46a144.66,144.66,0,0,1-27.76,85.44v0A145.35,145.35,0,1,1,375,94.12q6,0,11.84.48a145.29,145.29,0,0,1,133.5,144.86Z" style="fill:#455a64"></path><g style="opacity:0.2"><path d="M406.38,308.06c-1.83,4.88,1.22,5.09,1.43,7.12s0,5.9-5.9,11.81-15.68,4.68-17.71,7.12-5.5,12.82-10.38,16.29-5.7,1.42-12.62,2.84S349,363.63,347,367.9s.4,11.4-4.48,11.6-7.13-10.38-11.6-16.08-5.91-10.79-7.33-17.5.81-20.77,0-26.26-15.47-15.27-20.76-22-12.62-20.16-12.22-24.63a18.25,18.25,0,0,1,6.11-11.2c2.44-1.83,1.42-2.85,1.83-4.48s2.44-2,2.85-4.07-1.22-8.14-3.26-9.16-3.46,2.44-4.68,1.83-4.88-4.88-6.31-5.29-1,2.65-3.05-1.22-3.05-13.64-4.68-15.27-2.85,2.85-6.72,0-5.5-8.34-7.12-9.16-3.87.21-5.54-3.05,1.47-9.16,0-8.55-4.64,5.29-5.46.82,4.08-19.55,3.26-27.69,2-16.69,7.74-23.61c0,0,.81-4.48,1.62-7.33s18.32-14.25,20.36-17.5c.85-1.36,1.13-3.5,1.44-5.79A144.65,144.65,0,0,1,375,94.12q6,0,11.84.48c.14.19.27.37.41.54,1.76,2.24,3.66,3.67,8.82,5.57s6.38,4.34,5.29,6.37-2.85,2.44-4.88,2.58-3.94-1-6.11.41-4.34,8.68-7.19,9.09-7.87-6.51-9-8.55,2.45-6.38.78-8.41-4.58-1.63-9.19-2-15.33,1.36-14.93,3.12,15.74-.27,16.15,3.26-11.26,9.5-13.3,9S349,111.43,346,111s-5.43,2-7.31,2.31-4.09-2-6.94-1.5-3.53,3-5,3.94-5,1-5.43,3.12,4.48,3.39,5.7,4.75-1.5,6-.27,6.92,8.82-5.7,10.72-7.33,3.52-8.68,7.6-8.55,5.43,7.06,6.78,7.74,4.35-1.63,8.82-.68,7.6,10.72,8.41,13.7,2.72,6,1.09,7.2-8.95-.82-9.9-2.72,4.88-4.75,4.47-5.42-3.8-1.63-5.56-.57-2.58,3.28-4.48,3.82-6.92-5.15-8.27-3.53,1.35,6.79,2.71,8,6.38,1.9,6.78,3.26-3.39,4.34-8,4.07-8.42-3.8-10.18-2.31-.82,5.43-2,6.79-7.87.4-11.12,3.93-4.75,8.82-8,11.81-4.75-.82-9.09,3.39-5,13.57-5.16,16.83,0,5.83-1.08,5.42-2.58-3.25-3-5,.95-4.75.95-5.83-6.24-6.65-9.91-7.19-6.92,2.44-9.63,4.61-7.6,1.77-9.36,3.53-3.13,17.37-1.77,21,3.12,3.67,7.47,1.77,1.89-5.57,4.47-4.75a6.05,6.05,0,0,1,3.94,5.69c0,2.18-5.16,7.33-4.48,8.83s5.16-.28,7.33.4,3.25,2,2.58,7.6-.27,9.91,3,11.74,5.09-2.64,6.52-2,3.46,3.86,5.49,3.66,1-2,4.89-3.26,2.44-2,3.25-4.48,3.26-4.47,5.91-3.25.81,3.05,1,5.09,4.89,2.24,8.55,3.46,5.7,0,13,2.44,7.74,9.77,10.79,11,13.23-.81,20.56,4.48,5.29,15.06,8.95,17.91,17.31,6.72,22.6,7.74,6.1-2.65,10.38-1.63,6.72,2.24,8.14,8.14C424.13,292.29,408.22,303.17,406.38,308.06Z"></path><path d="M297,204c.13,1.16,3.53,1.63,7.6,3.94s5.56,9.09,7.73,9,1.5-3.26,2.31-4.08,2.17-2.57,0-4.34-4.28-5.56-8.25-6.1-4.64-2.18-6.41-2A3.07,3.07,0,0,0,297,204Z"></path><path d="M319.4,215.37c-.61,1.67,0,2.85,4.34,3.94s8.42-1.09,7.06-2-3.39-.47-2.58-2,.54-3.66-3-3.25S319.94,213.88,319.4,215.37Z"></path><path d="M334.6,215.84c-1.48.21-2.31,2.79-.82,4.42s1.5,1.35,3.26,0,4.48-2,3.8-3.39S336.09,215.62,334.6,215.84Z"></path><path d="M346.4,221.38c.67-2,4.07,0,5.57,2.13s.81,5.3,0,7.6-1.36,5-3.26,3.94.14-4.34-.13-6.24S345.86,223,346.4,221.38Z"></path><path d="M404.89,108.17c-.71,1.7,2.58,2.31,4.48,3.39s3.39,1.77,4.48,0-.41-3.8-1.9-4.21S405.57,106.54,404.89,108.17Z"></path><path d="M430.54,124.05c1.25,1.32,3.39,1.08,4.88,3s.95,5.16,2.85,6.11,3.26,0,3.4-1.36-2.72-4.75-2.45-5.43,3.94,1,4.75,3-.81,4.88,1.09,5.43,1.49-1.9,2.31-2.45,2.57-.27,2.44-1.9-2.31-5.15-4.07-6.37-3.12-2.58-6.11-3.26-5.83-.14-7.33,1.08S429.77,123.23,430.54,124.05Z"></path><path d="M489.25,149.62a2.38,2.38,0,0,1-.77,1.43c-2.85,2-6.24-5-10.17-6.38s-5.7-6.38-6.52-5.29-.54,2.58-1.76,4.34-3,1.36-3.8,4.75,3.8,9.64,2.71,11.67-2.44,1.36-4.61,1.23-1.77,1.76-4.61.94-.41-4.34-4.89-8.55-6-5-5-6.92-.41-4.61,1.63-4.88,3.66,2.71,5,3.53,3.12-1.63,3.25-3.8-4.75-5.16-6.51-6.84-1.9-7.82-1.22-9,2.71-.82,3.26-3.8c.31-1.75-2.46-4.69-4.81-6.8A145.82,145.82,0,0,1,489.25,149.62Z"></path><path d="M509.52,271.28c.4-4.34-1.77-4.61.4-12.62s-2.3-16.55-3.93-18.32-5.16-1.22-8,.54-.81,3.13-2.71,3.8-3.8-.4-5.56-.27-3.4,4.62-7.2,4.48-6.24-5.56-9.09-9.43-8.69-6.31-10.58-11.06,1.76-12.08,1-17.64-4.48-4.35-5.16-7.46.54-1.63,1.49-4.62-1.09-4.61.82-9.77,5.29-7.74,4.47-10-3.39-6.11-3.53-8.81,2.58-2.59,7.74-6.39,6.51-3.53,10.45-2.17a56.32,56.32,0,0,0,8.68,2.44c2.31.41,5.43,6.38,6.38,6.11s1.09-2,1.5-4.61a5.76,5.76,0,0,1,1.69-2.93,145.41,145.41,0,0,1-5.74,162.39C506.42,303.77,509.11,275.62,509.52,271.28Z"></path></g><path d="M487.59,331.36A145.34,145.34,0,1,1,375,94.12c4,0,7.93.16,11.85.48,1.08.08,2.16.18,3.23.3a133.18,133.18,0,1,0,97.51,236.46Z" style="opacity:0.1"></path><path d="M520.34,239.46a144.68,144.68,0,0,1-27.76,85.44v0a146.1,146.1,0,0,1-52.2,44.38,147,147,0,0,0,45.84-41.07s0,0,0,0a145.93,145.93,0,0,0-3.35-176.3,147,147,0,0,0-39-34.61,145.26,145.26,0,0,0-64-20.73c-3.92-.32-7.9-.48-11.91-.48a146.62,146.62,0,0,0-35.1,4.24A145.42,145.42,0,0,1,375,94.12c4,0,7.93.16,11.85.48a144.41,144.41,0,0,1,63.58,20.61,145.31,145.31,0,0,1,69.91,124.25Z" style="fill:#fff;opacity:0.30000000000000004"></path></g><g id="freepik--Heart--inject-65"><path d="M450.2,199.9c-16.4,21.71-36,31.24-36,31.24s-19.58-9.53-36-31.24c-12.67-16.77-12-43,6.09-48.71,20.05-6.28,29.9,23.9,29.9,23.9s10-30.38,29.92-23.9C462.19,157.07,462.87,183.13,450.2,199.9Z" style="fill:#FF7B54"></path><path d="M449.68,200.57c-.66.88-1.34,1.73-2,2.57H425.08l-3.32,9.93-6.68-20-4.92,14.23-4.41-24.11-5.69,34.7-5.47-22.76-3.56,8H380.77c-.69-.83-1.36-1.69-2-2.56h10.62l6-13.42,4.26,17.74,6-36.76,5.31,29.08,4.21-12.14L421.76,205l1.47-4.39Z" style="fill:#455a64"></path></g><g id="freepik--character-2--inject-65"><path d="M575.62,266.77c-7.65,18.3-37.89,77.34-57.28,81.27-12.72,2.58-63.92-3.08-72.58-15.33-3.77-5.33,3.23-42.09,10-40.53s47.84,7.54,52.91,6.14,43.49-44.44,57.77-55.07C591.1,224.94,579.75,256.92,575.62,266.77Z" style="fill:#ad6359"></path><path d="M558.84,305.77l-29-28.63s21.82-20.74,31.72-30.43c11.87-11.61,27.2-15.91,20.32,6.77C575.23,275.3,558.84,305.77,558.84,305.77Z" style="fill:#FF7B54"></path><path d="M558,295.18c-10.69-11.92-20.24-19.32-22.38-21.38-.1-.1-.24.07-.13.17,2.2,1.91,12.26,12.5,22.36,21.4C558,295.47,558.09,295.29,558,295.18Z" style="fill:#263238"></path><path d="M535.44,282.7l23.4,23.07s16.39-30.47,23-52.29c2.75-9.09,1.94-13.84-.78-15.53Z" style="opacity:0.1"></path><path d="M611.7,342.14s-1.34,15.1-3.32,36.95h0L608.2,381c-1,10.73-2.08,22.95-3.25,35.75H536.32c4.92-38.46,9.17-71.6,9.53-74.42l0-.2Z" style="fill:#FF7B54"></path><path d="M602.08,350.79q-.65,7.92-1.33,15.85h0c-.13,1.53-.28,3.05-.41,4.58v0c-1.33,15.17-2.73,30.34-4.29,45.49h-1c1.68-15.59,3.24-31.19,4.82-46.8v0l.51-5.08v0c.47-4.68,1-9.34,1.43-14C601.85,350.63,602.1,350.63,602.08,350.79Z" style="fill:#263238"></path><path d="M627.72,342.14s-3.13,17.71-7.52,42.52h0c-.08.4-.15.79-.22,1.21h0l-5.47,30.87H566.7l-1.09-7.19h0l-.21-1.41-.06-.37-.79-5.28h0l-.31-2-8.86-58.37Z" style="fill:#263238"></path><path d="M649.11,416.76H581.17c0-.28,0-.5,0-.68s0-.44,0-.44c-.36-.2-.72-.4-1.09-.59-3.82-2.08-7.17-3.7-9.93-4.93l-1.36-.61c-1.25-.54-2.37-1-3.3-1.36-2.39-.95-3.72-1.37-3.72-1.37-.08-.2-.15-.39-.22-.59-9.41-23.95-15.08-60.45-15.61-63.85l0-.26h92.76s17.89,25.79,8.67,56C647.25,398.09,648.48,410.35,649.11,416.76Z" style="fill:#FF7B54"></path><path d="M558.37,405.07a144.11,144.11,0,0,1,22.71,10.57.26.26,0,0,1-.21.47c-7.65-3.28-15.45-6.43-22.91-10.13A.5.5,0,0,1,558.37,405.07Z" style="fill:#263238"></path><path d="M555.94,352.56c0-.27.48-.33.48,0-.06,9.08.52,17.08,1.28,25.57.36,3.94,3.53,25.72,10.36,24.13,1.15-.26,1.73-1.39,1.91-3.11.22-2.08-.56-4.62-.91-6.68-.75-4.56-1.36-9.14-1.75-13.75a124.71,124.71,0,0,1,.27-25.77.22.22,0,0,1,.44,0c0,11.9.31,23.78,2.08,35.57.86,5.67,3.71,14.2-2.21,15.07s-9.94-13.4-10.68-17.31C555.16,375.37,555.07,363.59,555.94,352.56Z" style="fill:#263238"></path><path d="M567.88,402.81a35.77,35.77,0,0,1,1.54,4.51,10.37,10.37,0,0,1,.64,3.72.26.26,0,0,1-.47.1,13,13,0,0,1-1.59-3.61c-.52-1.4-1.07-2.79-1.55-4.2A.76.76,0,0,1,567.88,402.81Z" style="fill:#263238"></path><path d="M598.81,359.68a12.77,12.77,0,0,1,.29-2.83.15.15,0,0,1,.28,0,11.74,11.74,0,0,1,.32,2.44c.09.94.22,1.88.32,2.82a40.83,40.83,0,0,0,1,5.69,20.14,20.14,0,0,0,5.22,9.37,27.15,27.15,0,0,0,8.82,5.82c3.68,1.55,7.54,2.13,11.33,3.25.16,0,.11.27,0,.28a32.72,32.72,0,0,1-12.27-2.42,26.44,26.44,0,0,1-9.21-5.87,20.49,20.49,0,0,1-5.36-9.65,28.81,28.81,0,0,1-.74-5.71A28.47,28.47,0,0,1,598.81,359.68Z" style="fill:#263238"></path><path d="M543.22,362.92l6.42.38,59.85,3.49,39.44,2.3a73.4,73.4,0,0,0-10.35-27H545.82l0,.26C545.68,343.63,544.7,351.3,543.22,362.92Z" style="opacity:0.2"></path><path d="M541.83,359.8,550,313.6a35.1,35.1,0,0,1-7.61-24.72c.88-10.87,31.15-49.2,33.14-51.06,8-7.48,21.87-4.86,27.13-.3,25.39,22,43.49,95.77,45.9,122.28Z" style="fill:#FF7B54"></path><path d="M568,309.94a103.75,103.75,0,0,1,14.6,4.12c2.35.9,4.65,1.89,6.93,2.94,1.14.53,2.29,1,3.45,1.49a16,16,0,0,0,3.75,1.15.09.09,0,0,1,0,.18,28.5,28.5,0,0,1-3.68-.48,28,28,0,0,1-3.45-1.06c-2.39-.89-4.74-1.88-7.13-2.79-4.81-1.83-9.62-3.66-14.55-5.15C567.66,310.28,567.76,309.89,568,309.94Z" style="fill:#263238"></path><path d="M555.11,313a111.13,111.13,0,0,1,12.5.8c2.07.26,4.11.64,6.16,1.07,1,.21,2,.44,2.91.67s2.1.66,3.17.91c.11,0,.1.2,0,.18-1-.2-2.07-.23-3.09-.38l-3.1-.43c-2.06-.28-4.12-.54-6.19-.85-4.12-.6-8.24-1.17-12.38-1.63C554.84,313.29,554.9,313,555.11,313Z" style="fill:#263238"></path><rect x="583.51" y="280.77" width="25.14" height="4.37" transform="matrix(-1, -0.08, 0.08, -1, 1166.53, 614.53)" style="opacity:0.1"></rect><path d="M599.07,252.41c2.58,9.52,23.84,79.94,23.75,83.54,0,0,37.11,24.57,43.88,2,4.39-14.65-36.7-73-56.47-94.55C601.93,234.39,593.65,232.42,599.07,252.41Z" style="fill:#ad6359"></path><path d="M644.94,285.5l-33.8,11.9s-10-28.41-13.8-41.73c-3.71-12.9-6.13-30.1,11.37-14.12C625.55,256.92,644.94,285.5,644.94,285.5Z" style="fill:#FF7B54"></path><path d="M639.56,279.74c-15.36,4.51-26.16,9.94-28.94,11-.13,0,0,.26.1.2,2.67-1.16,16.56-5.69,28.94-11C639.81,279.9,639.71,279.69,639.56,279.74Z" style="fill:#263238"></path><path d="M611.14,297.4c-1.25-2.54-2.32-5.16-3.35-7.78s-2-5.3-2.88-8-1.74-5.38-2.49-8.1l-1.12-4.09c-.33-1.37-.69-2.74-1-4.12,1,2.65,1.91,5.32,2.83,8l2.71,8,2.65,8Z" style="fill:#263238"></path><path d="M602.88,273.77a9.64,9.64,0,0,1-2.32-2.32,8.9,8.9,0,0,1-1.48-2.93,21,21,0,0,1,2.08,2.49A17.54,17.54,0,0,1,602.88,273.77Z" style="fill:#263238"></path><path d="M593.64,232.36c7.66,2.73,4.66,11.93,2.38,15.78-5.29,8.88-17,15.69-19.25,14.52s-2.54-18-.84-22.44S585.33,229.4,593.64,232.36Z" style="fill:#ad6359"></path><path d="M597.3,238.09c-.47,2-8.8,13.77-17.82,13.31-2.93-.15-3.94-15.24-3.94-15.24l-.26-1.19-3.65-16.62,19.56-12.45,2.83-1.65s.7,4.62,1.51,10.37c0,.27.08.54.11.82s.11.63.15.94c.13.85.26,1.73.38,2.61.09.66.18,1.31.24,2s.16,1.38.24,2.09A110.79,110.79,0,0,1,597.3,238.09Z" style="fill:#ad6359"></path><path d="M595.53,214.62A34.13,34.13,0,0,1,575.28,235l-3.65-16.62,19.56-12.45,2.83-1.65S594.72,208.87,595.53,214.62Z" style="fill:#263238"></path><path d="M548.37,189.74c-5,29.46,12.08,35.78,18.44,36.85,5.76,1,25.52,3.55,33.54-25.23s-4.1-40.42-17.17-43.34S553.37,160.29,548.37,189.74Z" style="fill:#ad6359"></path><path d="M560.32,184.3a20.18,20.18,0,0,0,2.06,0,3.38,3.38,0,0,0,2.1-.45,1.05,1.05,0,0,0,.24-1.27,2.64,2.64,0,0,0-2.44-1.09,3.9,3.9,0,0,0-2.64.89A1.13,1.13,0,0,0,560.32,184.3Z" style="fill:#263238"></path><path d="M580.08,188.49a18.55,18.55,0,0,1-1.9-.79,3.34,3.34,0,0,1-1.79-1.18,1.05,1.05,0,0,1,.24-1.27,2.63,2.63,0,0,1,2.67-.13,3.83,3.83,0,0,1,2.13,1.8A1.13,1.13,0,0,1,580.08,188.49Z" style="fill:#263238"></path><path d="M574.77,195.16c0-.07.14.13.12.21-.49,2-.71,4.32.94,5.37.06,0,0,.13,0,.1C573.66,200.07,574,197,574.77,195.16Z" style="fill:#263238"></path><path d="M577,193.46c3.26.44,2.14,6.91-.88,6.51S574.27,193.09,577,193.46Z" style="fill:#263238"></path><path d="M578.2,194c.51.47.95,1.21,1.62,1.4s1.49-.37,2.11-.93c.07-.06.11,0,.1.1-.19,1.24-.89,2.43-2.25,2.38s-1.93-1.29-2-2.59C577.74,194.14,578,193.84,578.2,194Z" style="fill:#263238"></path><path d="M563.43,192.32c0-.08-.17.07-.19.15-.32,2-1,4.26-3,4.57-.06,0-.07.11,0,.11C562.53,197.27,563.44,194.28,563.43,192.32Z" style="fill:#263238"></path><path d="M562.05,189.89c-3.16-.87-4.67,5.52-1.73,6.33S564.71,190.62,562.05,189.89Z" style="fill:#263238"></path><path d="M560.72,189.93c-.64.23-1.34.74-2,.65s-1.23-.91-1.59-1.68c0-.08-.1,0-.12,0-.31,1.22-.13,2.59,1.14,3.08s2.27-.43,2.87-1.59C561.1,190.22,561,189.84,560.72,189.93Z" style="fill:#263238"></path><path d="M571.39,212c-.54.42-1.11,1-1.85,1a5.35,5.35,0,0,1-2.1-.78c-.06,0-.14,0-.1.09a2.7,2.7,0,0,0,2.42,1.42,2.14,2.14,0,0,0,1.81-1.58C571.62,212,571.47,212,571.39,212Z" style="fill:#263238"></path><path d="M564,201.84s-1,2.91-1.23,4.32c0,.13.31.26.78.37,0,0,0,0,.05,0a6.81,6.81,0,0,0,7-1.3c.13-.12,0-.3-.17-.24a10.28,10.28,0,0,1-6.44.63c0-.41,1.82-4.94,1.6-5a12.37,12.37,0,0,0-3.34.13c1.84-6.12,4.64-11.9,6.38-18a.2.2,0,0,0-.35-.16c-3.37,5.85-5.64,12.85-7.69,19.13C560.27,202.5,563.37,202,564,201.84Z" style="fill:#263238"></path><path d="M563.69,206.15a8.29,8.29,0,0,0,2.6,3.31,3.69,3.69,0,0,0,2.17.69c1.7,0,2.11-1.47,2.13-2.79a8.88,8.88,0,0,0-.24-2.1A10.71,10.71,0,0,1,563.69,206.15Z" style="fill:#263238"></path><path d="M566.29,209.46a3.69,3.69,0,0,0,2.17.69c1.7,0,2.11-1.47,2.13-2.79C568.84,207.1,566.85,207.84,566.29,209.46Z" style="fill:#ff9abb"></path><path d="M600.71,199.44c-3.26-.43-11.16-10.06-10.29-25.92,0,0,.21,14.3,1.13,16.46s-4.42-5.42-3.89-18.22c0,0-7.44,4.6-13.59,5.86s-9.84.94-10.24.47,8.67-2.63,11.27-5.22c0,0-16.57,6.31-24,6.35-.86,0-.62-17.66,11.34-24.31s29.5,2.7,34,7.75c0,0,5.67,1.23,11.28,10.13S604.23,199.9,600.71,199.44Z" style="fill:#263238"></path><path d="M594.27,162.22a69.76,69.76,0,0,0-6.48-4.09,52.34,52.34,0,0,0-6.81-3.34,35.27,35.27,0,0,0-7.18-2.09,11.47,11.47,0,0,0-1.83-.24c-.61,0-1.23-.12-1.84-.12a17.44,17.44,0,0,0-3.61.4,15.87,15.87,0,0,0-3.42,1.1,22.34,22.34,0,0,0-3.14,1.92,21.85,21.85,0,0,0-2.81,2.38,29.5,29.5,0,0,0-2.32,2.88,24.91,24.91,0,0,0-3.22,6.74,30.22,30.22,0,0,0-1.44,7.47,25.78,25.78,0,0,1,3.49-15,19.43,19.43,0,0,1,5.28-5.89,21.44,21.44,0,0,1,3.37-2.12,17.71,17.71,0,0,1,3.84-1.29,19.23,19.23,0,0,1,8,.05,31.18,31.18,0,0,1,7.42,2.5A49.43,49.43,0,0,1,594.27,162.22Z" style="fill:#263238"></path><path d="M595.28,202.82s7.26-8.76,11.29-6.1-2,15.74-7.06,17.18a5.06,5.06,0,0,1-6.53-3.26Z" style="fill:#ad6359"></path><path d="M604.76,200.43a.07.07,0,0,1,0,.13c-3.59,1.13-5.68,4.2-7.23,7.43,1.13-1.2,2.6-1.79,4.22-.42.08.07,0,.21-.11.18a3.11,3.11,0,0,0-3.5.8,15.71,15.71,0,0,0-1.86,2.62c-.18.3-.73.09-.58-.26l0-.08C596,206.4,600,200.49,604.76,200.43Z" style="fill:#263238"></path><path d="M598.78,214.13a1.64,1.64,0,1,1-1.71-1.56A1.63,1.63,0,0,1,598.78,214.13Z" style="fill:#fff"></path><path d="M596,162.54c6.16,3.86,23.4-.15,29.08-10,7.82-13.51-10.34-33.05-25.41-24S591.2,159.57,596,162.54Z" style="fill:#263238"></path><path d="M619.3,130.66a31.21,31.21,0,0,1,8.45,12.55,11.63,11.63,0,0,1-3.56,12.92,28.29,28.29,0,0,1-6.18,4.14,32.79,32.79,0,0,1-7,2.73,25.78,25.78,0,0,1-15-.46,22.3,22.3,0,0,0,15.47,2.4,30.26,30.26,0,0,0,7.65-2.52,29,29,0,0,0,6.81-4.43,14.5,14.5,0,0,0,4.41-7.13,13.68,13.68,0,0,0-.71-8.29A26.05,26.05,0,0,0,619.3,130.66Z" style="fill:#263238"></path><path d="M572,260.59s5.25-8-.47-11.11-9.62,5.57-9.62,5.57Z" style="fill:#455a64"></path><path d="M529.83,313.52h0l-.19,9.33-.08,3.08,2.58-1.7,7.78-5.17h0v0l32.29-58.79-10.09-5.54-32.29,58.8Z" style="fill:#455a64"></path><polygon points="529.64 322.86 529.56 325.94 532.14 324.24 529.64 322.86" style="fill:#263238"></polygon><rect x="559.99" y="257.01" width="13.44" height="2.67" transform="translate(939.05 757.6) rotate(-151.22)" style="fill:#263238"></rect><rect x="558.57" y="259.59" width="13.44" height="2.67" transform="translate(935.14 761.77) rotate(-151.22)" style="fill:#263238"></rect><polygon points="570.53 265.33 566.74 263.24 557.15 285.67 558.59 286.36 570.53 265.33" style="fill:#263238"></polygon><path d="M617.33,294.39c-5.49-1-44.87,35.07-37.43,38.53,34.36,15.95,66.29,19.7,73.84,18.68,9.9-1.35,14.7-12.87,12.92-19.16C664.08,323.32,622.76,295.33,617.33,294.39Z" style="fill:#ad6359"></path><path d="M542.4,264.72c-1.87,5.85,12.92,9.22,12.92,9.22a11.35,11.35,0,0,0-6.24,4.51c-2.44,4,2.72,9.54,2.72,9.54a14,14,0,0,0-5.83,5.8c-2,4,2.45,10.39,2.45,10.39a12.27,12.27,0,0,0-1.91,8.33c1.34,7.74,12.83,11.5,19.48,15.23,7.13,4,19.21,6.07,24.57,8.92l26.77-42.27s-21.53-26-34.48-30.62C575.67,261.19,545.25,255.8,542.4,264.72Z" style="fill:#ad6359"></path><path d="M555.5,273.82c8.34.17,16.62,2.34,24.59,4.53a.14.14,0,0,1-.08.27c-7.9-2.26-16.6-2.47-24.57-4.41A.2.2,0,0,1,555.5,273.82Z" style="fill:#263238"></path><path d="M552.19,287.46a22.05,22.05,0,0,1,5.52,1.4c1.91.63,3.82,1.29,5.71,2,3.79,1.39,7.55,2.86,11.26,4.44.17.07.1.34-.08.28q-5.67-2.07-11.41-3.91c-1.92-.6-3.85-1.2-5.77-1.77A26,26,0,0,1,552,288,.29.29,0,0,1,552.19,287.46Z" style="fill:#263238"></path><path d="M548.58,304.24c1.64,0,3.39.93,4.9,1.52q2.57,1,5.15,2c3.44,1.3,6.88,2.59,10.37,3.77.17.06.1.33-.08.27-3.55-1.17-7.11-2.3-10.65-3.51-1.73-.59-3.47-1.19-5.2-1.8-1.47-.52-3.37-1-4.56-2A.1.1,0,0,1,548.58,304.24Z" style="fill:#263238"></path><path d="M585.47,264.91c-2.28-1.43-6-3.61-13.34-3.66-.2,0-.17.1,0,.14A53.57,53.57,0,0,1,585.42,265C585.48,265,585.52,264.94,585.47,264.91Z" style="fill:#263238"></path><path d="M617.33,294.39s14.89,6.52,25.17,15.54" style="fill:#263238"></path><polygon points="469.92 352.19 540.47 351.73 512.31 267.76 441.76 268.22 469.92 352.19" style="fill:#c7c7c7"></polygon><polygon points="465.91 352.19 536.46 351.73 508.31 267.76 437.76 268.22 465.91 352.19" style="fill:#a6a6a6"></polygon><polygon points="457.69 273.07 491.12 272.82 488 263.56 454.57 263.81 457.69 273.07" style="fill:#ebebeb"></polygon><polygon points="462.16 263.76 466.28 263.73 464.84 259.46 474.85 259.38 476.28 263.65 480.4 263.62 477.78 255.84 459.49 255.98 462.16 263.76" style="fill:#ebebeb"></polygon><path d="M443,287.78c-2.68,7.26-10.23,16.66-10.4,22.41a6.6,6.6,0,0,0,4.28,6.61s-5.42,3.34-4.72,8.59c.36,2.69,5,4.48,5,4.48s-4.23,2.87-3.31,7.5c.73,3.68,5.26,4.92,5.26,4.92s-2.78,4.64-.83,8.16c3.95,7.13,36.05,4.24,39.95-8,1.82-5.73-6-4.59-6-4.59s10.83-4.34,10.41-11-10.48-4.55-10.48-4.55,10.46-4.29,9.32-11.13c-1.18-7.11-10.88-3.31-10.88-3.31s6.71-5.48,4.64-10.51c-3.42-8.31-16,3.65-23.17,2.61l-4.95-11.28Z" style="fill:#ad6359"></path><path d="M437.45,298.47c1.94-7.09-7.33-14.81-6.45-21.86,1.18-9.54,12.54-1.31,16.1,12.07l.95,10.87Z" style="fill:#ad6359"></path><path d="M439.76,342.59a.09.09,0,0,0,0,.17c10.79,1.63,23.15.1,32.9-4.94.32-.17.19-.76-.2-.65C461.4,340.45,451.34,342.48,439.76,342.59Z" style="fill:#263238"></path><path d="M437,330c-.12,0-.12.2,0,.22,11.13,1.62,25-.48,35.55-7.62.37-.25.44-.83,0-.58C465.17,326.2,447.4,329.91,437,330Z" style="fill:#263238"></path><path d="M471.19,307.1c-10.39,6.45-21.8,8.93-33.88,9.79-.16,0-.13.23,0,.26,6,1.19,13.67-.16,19.53-1.71a32.17,32.17,0,0,0,14.56-8C471.58,307.31,471.41,307,471.19,307.1Z" style="fill:#263238"></path></g><g id="freepik--character-1--inject-65"><path d="M222.62,416.76H145.86c-.25-1.38-.5-2.74-.74-4.1s-.54-3-.81-4.41l-.63-3.48c-.1-.58-.21-1.15-.31-1.72-.42-2.27-.82-4.51-1.22-6.68-.1-.55-.2-1.09-.29-1.63a1.31,1.31,0,0,0-.06-.27c-.19-1.14-.4-2.26-.61-3.37,0-.24-.08-.48-.13-.72l-1.24-6.82c0-.36-.12-.71-.19-1.06-.27-1.51-.53-3-.8-4.4-.14-.73-.26-1.45-.39-2.17-.39-2.12-.76-4.14-1.1-6h0c-.05-.25-.08-.49-.14-.72,0,0,0,0,0,0-.06-.37-.13-.75-.2-1.12s-.15-.71-.21-1.06h0c-.25-1.37-.48-2.67-.69-3.89a.31.31,0,0,0,0-.08c-.1-.55-.19-1.07-.29-1.58s-.18-1-.27-1.48-.11-.64-.17-.94v0c-.09-.43-.16-.85-.23-1.25s-.13-.73-.19-1.07-.09-.51-.14-.74c-.15-.82-.28-1.54-.4-2.18-.07-.43-.14-.81-.21-1.15s-.07-.41-.1-.59,0-.17-.05-.25a2.81,2.81,0,0,0-.06-.35l0-.16c0-.1,0-.18,0-.24s0-.06,0-.09l0-.12h72.53S213.69,379.75,222.62,416.76Z" style="fill:#263238"></path><path d="M157.24,416.76h-1q-5.4-28.54-10.69-57.11c0-.17.22-.25.26-.08C149.62,378.63,153.48,397.68,157.24,416.76Z" style="fill:#37474f"></path><path d="M192.48,350.75,190,376.45v.06l-.53,5.38h0l-.61,6.2h0l-.12,1.22-.11,1.12L186,416.76H145.86c-.25-1.38-.5-2.74-.74-4.1s-.54-3-.81-4.41l-.63-3.48c-.1-.58-.21-1.15-.31-1.72-.42-2.27-.82-4.51-1.22-6.68-.1-.55-.2-1.09-.29-1.63a1.31,1.31,0,0,0-.06-.27c-.19-1.14-.4-2.26-.61-3.37,0-.24-.08-.48-.13-.72q-.63-3.53-1.24-6.82c0-.36-.12-.71-.19-1.06-.27-1.51-.53-3-.8-4.4-.14-.73-.26-1.45-.39-2.17-.39-2.12-.76-4.14-1.1-6h0c-.05-.25-.08-.49-.14-.72,0,0,0,0,0,0-.06-.37-.13-.75-.2-1.12s-.13-.72-.2-1.08h0c-.25-1.37-.48-2.65-.7-3.87a.31.31,0,0,0,0-.08c-.1-.55-.19-1.07-.29-1.58s-.18-1-.27-1.48-.11-.64-.17-.94v0c-.09-.43-.16-.85-.23-1.25s-.13-.73-.19-1.07-.09-.51-.14-.74c-.15-.82-.28-1.54-.4-2.18-.07-.43-.14-.81-.21-1.15s-.07-.41-.1-.59,0-.17-.05-.25a2.81,2.81,0,0,0-.06-.35l0-.16c0-.1,0-.18,0-.24s0-.06,0-.09a1.13,1.13,0,0,0,0-.12Z" style="fill:#37474f"></path><path d="M204.82,350.75c-6.95,15.44-10.31,31.85-13.66,36.12h0v0a18.75,18.75,0,0,1-2.45,2.43c-5.23,4.51-14.95,10.26-14.95,10.26,0,.17,0,.34,0,.51h0c-.14,5.33-.27,10.9-.38,16.65H89.25c-1.45-14.12-.12-36.42,9.25-66Z" style="fill:#263238"></path><path d="M193.55,385.8c-5,2-9.41,5.14-13.8,8.15-4.57,3.12-8.76,6.73-13.15,10.08-.17.13,0,.41.17.29,4.64-3,9.49-5.56,14.07-8.61s9.07-5.83,12.93-9.55C193.92,386,193.76,385.71,193.55,385.8Z" style="fill:#37474f"></path><path d="M194.17,357.16c-.58,3.17-1.35,6.31-2,9.46-.64,3-1.11,6-1.89,8.9a15.14,15.14,0,0,1-4.15,7.45c-1.16,1.08-2.43,2-3.67,3-.67.53-1.39,1.05-2.08,1.58.09-.41.16-.84.24-1.27.21-1.2.41-2.41.61-3.61q.67-4,1.29-8c.8-5.26,1.54-10.58,2.64-15.78a.17.17,0,1,0-.33-.08c-1.31,5.16-2.75,10.26-3.9,15.46-.56,2.56-2.55,15.16-2.64,16.05s-.17,1.85-.2,2.77a10.73,10.73,0,0,0,0,2.83c0,.23.33.19.42,0h0a11.21,11.21,0,0,0,.8-2.74c.23-.9.43-1.81.59-2.73.06-.33.11-.67.16-1,1.24-.76,2.39-1.76,3.55-2.6s2.53-1.78,3.71-2.78a14.21,14.21,0,0,0,4.53-7.07,52.2,52.2,0,0,0,1.48-9.06c.4-3.58.69-7.18,1.19-10.75C194.53,357,194.22,357,194.17,357.16Z" style="fill:#37474f"></path><path d="M109.47,379.24c1.32-.7,6.47.53,15.84-1.07a10.73,10.73,0,0,0,5.06-2.05c2.44-2,4.29-5.2,5.77-7.94a41.06,41.06,0,0,0,4-9.8c.05-.21.35-.11.31.09-.35,1.94-.54,3.88-1,5.8a35.71,35.71,0,0,1-1.94,5.26c-1.41,3.18-3.07,6.59-5.92,8.74s-7.16,2.67-10.79,2.93c-2.09.14-10.32-.08-11.42-1.25A.46.46,0,0,1,109.47,379.24Z" style="fill:#37474f"></path><path d="M211.49,364.16,88.75,371.48s11.51-111.12,51.62-154c5-5.29,17.26-5.35,25.59-2.15,3,1.15,13.7,15.32,17.88,28.54S211.77,363.73,211.49,364.16Z" style="fill:#FF7B54"></path><path d="M140.37,217.51s16.26,48.75,17.15,56,19.53,143.26,19.53,143.26H81.59s7.16-102.58,29.26-152.63C132.07,216.08,140.37,217.51,140.37,217.51Z" style="fill:#ebebeb"></path><path d="M139.63,218.17c-.62,3.2-1.2,6.4-1.78,9.61l-1.71,9.61q-1.68,9.62-3.24,19.25l-.1.59.55.26c3.7,1.81,7.41,3.58,11.13,5.34l-.43-1.18-6.22,13.67-.2.45.27.41q6,8.88,12.12,17.66c2,2.92,4.1,5.85,6.18,8.75s4.15,5.81,6.28,8.67c-1.84-3.06-3.76-6.07-5.64-9.11s-3.82-6-5.75-9q-5.79-9-11.73-17.92l.07.87,6.24-13.66.37-.81-.81-.38Q139.64,258.6,134,256l.45.85q1.4-9.66,2.7-19.34l1.26-9.68C138.85,224.64,139.26,221.41,139.63,218.17Z" style="fill:#dbdbdb"></path><path d="M110.38,369.67c-.37,11.7.17,24.93,2.66,27.37,4.66,4.55,17.07,4.17,21,4.14s17.81-.05,21.07-7.22c1.44-3.16,1.82-19.49,1.78-25.27,0-2.34-.54-13.89-.72-15.18,0-.31-.87-.27-.9-.07-.19,1.32-.07,6.11-.14,7-22.38,2.88-36.23.47-43.41-.91,0-2.16,0-3.84,0-6a122.08,122.08,0,0,0,21.2,2,232.11,232.11,0,0,0,23.25-1.65c.18,0,0-.89-.22-.88-2.92,0-13,1-23.21,1a184.81,184.81,0,0,1-21.77-1.7C110.56,352.47,110.55,364.06,110.38,369.67Zm4,26c-2.47-2.84-2.77-11-2.77-15.89,0-6.73,0-12.1,0-18.83,17.23,4,36.2,2,43.39.58,0,.29.13,14.48,0,19-.17,5.77-.36,11-2.57,14-1.9,2.57-7.27,5.15-19.6,5.14C124,399.7,116.46,398.07,114.39,395.7Z" style="fill:#dbdbdb"></path><path d="M167.3,215.72S181,262.3,181.83,269.14s27.1,147.61,27.1,147.61h17.64S189.29,258.11,184.66,243,167.3,215.72,167.3,215.72Z" style="fill:#ebebeb"></path><path d="M168.35,218.17c1.35,2.4,2.73,4.78,4.11,7.15s2.75,4.75,4.15,7.11q4.19,7.09,8.46,14.11l.05-1q-2.85,3.42-5.64,6.9L179,253l.42.6L186.79,264l-.18-.54q.28,9.78.75,19.55c.15,3.26.31,6.52.51,9.78s.38,6.51.63,9.77c.08-3.26.08-6.52.11-9.78s0-6.52,0-9.77q-.07-9.78-.29-19.56v-.29l-.17-.24-7.33-10.36,0,1.15q2.79-3.48,5.51-7l.37-.48-.32-.5q-4.41-6.94-8.89-13.82c-1.49-2.29-3-4.57-4.52-6.85S169.9,220.43,168.35,218.17Z" style="fill:#dbdbdb"></path><polygon points="161.57 244.77 164.62 235.58 172.99 241.97 172.11 248.66 165.53 250.38 161.57 244.77" style="fill:#263238"></polygon><polygon points="165.53 250.38 171.91 326 183.89 348.58 190.39 322.33 172.11 248.66 165.53 250.38" style="fill:#263238"></polygon><path d="M244.43,323.17A51.6,51.6,0,0,1,227,320.51c-9.91-3.63-19.47-13.76-28.4-30.13A166,166,0,0,1,188.14,267l2.85-.95c.14.43,14.89,43.53,37,51.61,22.67,8.28,68.66-5.56,79.36-23.89,10.92-18.68,2.69-51.16,2.6-51.48l2.91-.75a115.72,115.72,0,0,1,2.92,19.29c1,14.54-1,26.13-5.84,34.46C300.83,310.91,269.2,323.17,244.43,323.17Z" style="fill:#263238"></path><circle cx="312.22" cy="241.28" r="14.73" transform="translate(-28.88 42.92) rotate(-7.52)" style="fill:#a6a6a6"></circle><path d="M320.84,239.2a8.86,8.86,0,1,0-6.54,10.7A8.86,8.86,0,0,0,320.84,239.2Z" style="fill:#ebebeb"></path><path d="M144.07,237.08c9,6.45,61.67,58.42,63.2,65.41,2.4,10.93,4.61,40.28-21.51,37C167.67,337.23,140,280.15,130,253.92,123.72,237.66,128.07,225.56,144.07,237.08Z" style="fill:#f7a9a0"></path><path d="M230.16,272.68c6.07-1.4,40.69,30,33.58,35.83-33.45,27.22-66.09,31.93-74.59,31.24-11.14-.9-17.21-13.47-15.6-20.61C175.87,308.79,224.15,274.07,230.16,272.68Z" style="fill:#f7a9a0"></path><path d="M227.52,273.85s11.6-15.62,19.45-26c4.38-5.82,12.79-15.12,18-17.92,7.74-4.19,42.78-16.76,46-8.33,2.93,7.63-28.55,14.61-28.55,14.61s31.14-9.85,33,0-34.78,13-34.78,13,32.22-9.4,32.51,1c.21,7.89-32.78,12.62-32.78,12.62s27.75-7.89,28.32.21c.63,9-29.56,15.23-29.56,15.23-2,20.85-12.15,33.61-23,36.14C253.84,314.91,227.52,273.85,227.52,273.85Z" style="fill:#f7a9a0"></path><path d="M271.4,238.89c3.62-1.29,7.27-2.62,11-3.58s7.47-1.8,11.26-2.42a65.72,65.72,0,0,1,15-1c-8.93.22-22.29,3.46-26,4.42s-7.47,1.74-11.19,2.7C271.34,239.06,271.32,238.92,271.4,238.89Z" style="fill:#263238"></path><path d="M274.64,252.38c4.69-1.45,9.29-3.06,14-4.3s9.33-2,14.13-2.89c.37-.07.29.15-.08.23-4.77,1.1-9.08,2.48-13.83,3.63s-9.55,2.12-14.24,3.44C274.59,252.51,274.57,252.4,274.64,252.38Z" style="fill:#263238"></path><path d="M275.33,264.45c7.05-2.57,14.57-3.85,22-4.92.37,0,.23.22-.15.3-7.33,1.5-13.1,2.62-21.74,4.87C275.29,264.73,275.18,264.51,275.33,264.45Z" style="fill:#263238"></path><path d="M227.41,273.11l32.53,46.83S201,349.41,182.46,339.82s-43.5-56.24-53.12-83.34,5-31,20.66-15.33,51,48.67,51,48.67Z" style="fill:#ebebeb"></path><path d="M243.39,324.1c-10-18.79-23.35-37-25.45-40.37-.1-.16-.35,0-.24.17,2.24,3.17,15.24,25.67,25.43,40.4C243.25,324.47,243.49,324.28,243.39,324.1Z" style="fill:#263238"></path><path d="M226.46,334.17c-8.31,2.83-19.34,6.28-27.26,7.32a33,33,0,0,1-11.72-.29,19,19,0,0,1-5.38-2.12,25.86,25.86,0,0,1-5-4.13,162.8,162.8,0,0,1-16.76-19.85c-5.11-7.05-9.82-14.4-14.26-21.89s-8.91-15-13.18-22.64l-1.56-2.82c-.08-.15-.31,0-.23.11,2.86,5.43,5.62,10.9,8.49,16.32-2.23-2.75-4.45-5.51-6.56-8.35-.09-.13-.26,0-.17.15a98.51,98.51,0,0,0,7.63,9.91c1,1.87,2,3.73,3.07,5.58A262.45,262.45,0,0,0,157.75,314a168.36,168.36,0,0,0,16.86,20.34c3,3,6,5.9,10.14,7.32a29,29,0,0,0,11.64,1.19,66.8,66.8,0,0,0,13-2.38c4.52-1.26,16.11-5.53,17.15-6.11A.08.08,0,0,0,226.46,334.17Z" style="fill:#263238"></path><path d="M206.79,285.92c-1,.54-1.88,1.23-2.82,1.84s-1.86,1.24-2.77,1.89c-1.88,1.34-3.74,2.71-5.59,4.08-3.72,2.76-7.15,5.85-10.57,8.95-.28.25.06.71.36.47,3.51-2.94,7.16-5.7,10.69-8.61,1.75-1.45,3.52-2.85,5.32-4.24.89-.68,1.76-1.36,2.63-2.06s1.94-1.4,2.83-2.19C206.93,286,206.87,285.87,206.79,285.92Z" style="fill:#263238"></path><path d="M201.33,289.77q-1.77-1.74-3.63-3.39a49.92,49.92,0,0,0-3.88-3.23.08.08,0,0,0-.11.12,28,28,0,0,0,3.51,3.54,34.92,34.92,0,0,0,4,3.06C201.3,289.91,201.39,289.83,201.33,289.77Z" style="fill:#263238"></path><path d="M189.21,231.11c0-39.33-3.83-47.92-8-51.35a25.23,25.23,0,0,0-10.46-4.7l-.48,2.72.24-1.36-.24,1.36a22.94,22.94,0,0,1,9.19,4.11c3,2.48,7,10.28,7,49.22Z" style="fill:#ebebeb"></path><rect x="167.08" y="171.56" width="5.88" height="9.56" rx="1.11" transform="translate(382.75 54.91) rotate(104.24)" style="fill:#a6a6a6"></rect><path d="M163.3,236.41c-6.92,1.48-18.48-9.29-23-17.91-.3-.59.73-6.72,1.63-14.23.53-4.57,1-9.66,1.12-14.33,0-1,29.17,7.77,29.17,7.77s-3.1,9.74-3.23,17.9a9.89,9.89,0,0,0,.16,1.92c0,.09,0,.2,0,.32C169.74,221.51,170,235,163.3,236.41Z" style="fill:#f7a9a0"></path><path d="M142.7,197.06c10.2,16,23.5,15.09,26.58,14.63a81.91,81.91,0,0,1,3-14s-29.16-8.73-29.17-7.77C143,192.25,142.89,194.67,142.7,197.06Z" style="fill:#263238"></path><path d="M138.16,151.13c-3.59,10.27.72,40.51,7.84,47.5,10.34,10.13,27.85,11.75,36.6-.81,8.49-12.17,2.19-51.48-5.83-57.89C165,130.48,143.45,136,138.16,151.13Z" style="fill:#f7a9a0"></path><path d="M186.64,178.15c0,8.13-1.13,15.5-4,19.67-8.75,12.56-26.26,10.94-36.6.81-4-4-7.17-15.39-8.47-26.42l5.05-.82c0,.09,0,1.56,2.59,5s8.46,7.62,16.4,8S174,180.64,174,180.64l2.59.43a5.33,5.33,0,0,0,5.74,2.51C184.68,183.06,186,180.29,186.64,178.15Z" style="fill:#263238;opacity:0.2"></path><path d="M139.6,178.66c5.77-.64,4.5-14.74,4.5-14.74s8.75-2,12.45-14.35c0,0,11.71,6.56,21.14,4.35,14.79-3.46,13.41-22.82,7.63-26.49-8.19-5.2-21.88,3.66-21.88,3.66s-21.63-4.88-27.26,9.87c0,0-9.49.89-9.62,11.44S135.31,179.13,139.6,178.66Z" style="fill:#263238"></path><path d="M142.12,165.69A19.7,19.7,0,0,0,153,159c2.79-3.55,4.24-8.86,2.74-13.23-.08-.24.31-.35.38-.1,1.3,4.87,1.27,9.95-1.66,14.27a13.71,13.71,0,0,1-12.25,6.13A.21.21,0,0,1,142.12,165.69Z" style="fill:#263238"></path><path d="M125.49,146.28c2.75-3.87,7.21-4.68,11.65-4.75.26,0,.25.41,0,.39-4.39-.28-8.64,2.86-10.73,6.54s-1.33,8-.23,11.82a31.07,31.07,0,0,0,13.29,17.84.1.1,0,0,1-.1.17,31,31,0,0,1-14.89-19.52C123.51,154.75,123,149.85,125.49,146.28Z" style="fill:#263238"></path><path d="M162.89,131.82a14.62,14.62,0,0,1,7.88-6.69,17.41,17.41,0,0,1,12.44.64,9.85,9.85,0,0,1,5.59,8.12c.47,4-1.23,7.93-3.36,11.21a.08.08,0,1,1-.14-.09c1.69-3.09,2.94-6.55,2.54-10.16a9.06,9.06,0,0,0-5.73-7.74c-6.26-2.42-15.19-1.52-18.89,4.91C163.1,132.24,162.77,132,162.89,131.82Z" style="fill:#263238"></path><path d="M145.67,179.17s-6.6-9.85-11.06-7.51.38,16.52,5.52,18.55a5.27,5.27,0,0,0,7.11-2.7Z" style="fill:#f7a9a0"></path><path d="M136.1,175.69c-.08,0-.1.11,0,.14,3.6,1.54,5.45,4.94,6.72,8.46-1.06-1.37-2.51-2.13-4.34-.88-.09.06,0,.21.1.19a3.24,3.24,0,0,1,3.54,1.2,16.13,16.13,0,0,1,1.65,2.92c.16.33.75.16.64-.21l0-.09C144.53,182.8,141.06,176.25,136.1,175.69Z" style="fill:#263238"></path><path d="M166.64,172.23c0-.07-.15.12-.13.21.34,2,.39,4.41-1.36,5.34-.05,0,0,.13,0,.11C167.39,177.26,167.29,174.1,166.64,172.23Z" style="fill:#263238"></path><path d="M164.53,170.35c-3.32.21-2.67,6.82.4,6.63S167.3,170.19,164.53,170.35Z" style="fill:#263238"></path><path d="M178.6,170.64c0-.08.17.08.18.16.13,2.06.63,4.39,2.55,4.89.06,0,.07.11,0,.11C179,175.7,178.4,172.6,178.6,170.64Z" style="fill:#263238"></path><path d="M180.22,168.32c3.27-.57,4.18,6,1.15,6.54S177.48,168.8,180.22,168.32Z" style="fill:#263238"></path><path d="M162.06,166.71a26,26,0,0,0,2.6-.8,4.34,4.34,0,0,0,2.51-1.32,1.39,1.39,0,0,0-.15-1.7,3.45,3.45,0,0,0-3.49-.51,5.06,5.06,0,0,0-3,2.08A1.5,1.5,0,0,0,162.06,166.71Z" style="fill:#263238"></path><path d="M182.46,164.74a27.07,27.07,0,0,1-2.7-.42,4.43,4.43,0,0,1-2.66-1,1.4,1.4,0,0,1-.09-1.71,3.48,3.48,0,0,1,3.39-1,5.09,5.09,0,0,1,3.3,1.64A1.5,1.5,0,0,1,182.46,164.74Z" style="fill:#263238"></path><path d="M166.12,190.65c.54.43,1.09,1,1.84,1a5.39,5.39,0,0,0,2.15-.73.07.07,0,0,1,.1.1,2.78,2.78,0,0,1-2.49,1.36,2.2,2.2,0,0,1-1.79-1.65C165.89,190.64,166,190.58,166.12,190.65Z" style="fill:#263238"></path><path d="M167.67,184.3a7,7,0,0,0,5,2.65,8.55,8.55,0,0,0,2.52-.13,2.17,2.17,0,0,0,.47-.1,4.2,4.2,0,0,0,.45-.11.52.52,0,0,0,.36-.5v0a.71.71,0,0,0,0-.2v0l0-.18c-.11-1.58-.5-4-.5-4,.61.23,3.67,1.26,3.54.45-1.07-6.78-2.26-14.32-4.76-20.84a.19.19,0,0,0-.37.09c.77,6.55,2.69,12.93,3.58,19.5a12.81,12.81,0,0,0-3.39-.68c-.22.09.83,4.6.82,5.31a.45.45,0,0,1,0,.08c-2.61.59-4.69,0-7.43-1.54C167.68,184,167.54,184.15,167.67,184.3Z" style="fill:#263238"></path><path d="M174.14,186.11a8.22,8.22,0,0,1-3.06,2.89,3.72,3.72,0,0,1-2.25.37c-1.67-.27-1.86-1.77-1.69-3.08a8.74,8.74,0,0,1,.55-2A10.73,10.73,0,0,0,174.14,186.11Z" style="fill:#263238"></path><path d="M171.08,189a3.72,3.72,0,0,1-2.25.37c-1.67-.27-1.86-1.77-1.69-3.08C168.91,186.29,170.77,187.31,171.08,189Z" style="fill:#ff9abb"></path><path d="M169,216.14l-4.84,16.7-23.68-17.35L137,223.62s23.91,27.62,23.82,26.22l4.54-14.08,10.81,7.68-4.25-22.76Z" style="fill:#FF7B54"></path><path d="M174.68,232.07c-.83-3.74-1.56-7.52-2.57-11.21,0-.13-.26-.16-.27,0-.24,3.76,3,18,3.53,21.48l0,0c-.46-.33-10-6.69-10-6.55-1.1,2.29-4.45,12.55-4.64,13.47-3.78-4.39-19.62-21.55-23.92-25.59a.14.14,0,0,0-.22.17c3.47,4.71,24,27.41,24.24,27.31a144.92,144.92,0,0,0,4.72-14.88c1.66,1.45,11.39,8.77,11.34,8.2A115.05,115.05,0,0,0,174.68,232.07Z" style="fill:#263238"></path><path d="M166.07,236.18C145.5,214.84,136.26,202,137,195.87a22.66,22.66,0,0,1,3.77-9.33l-2.23-1.63a25.15,25.15,0,0,0-4.28,10.64c-.86,7.33,7.78,19.66,29.84,42.55Z" style="fill:#ebebeb"></path><rect x="136.99" y="180.54" width="5.88" height="9.56" rx="1.11" transform="translate(118.94 -45.94) rotate(31.87)" style="fill:#a6a6a6"></rect><path d="M164,240.8c2.29,3.32,8.3,11.45,12,15.24a16.58,16.58,0,0,0,7.78,4c.52-.17,2.21,4.36,3.52,8.09,1.15,3.29,2.42,7.15,3.63,7.85a2.72,2.72,0,0,0,3.55-1.33c.47-1.31-1.1-5.07-2.37-8.32-1.45-3.68-3.11-8.21-2.6-8.43a18,18,0,0,0,2.92-8.08A131.75,131.75,0,0,0,191,230.07c-.81-4.1-2.24-4-3.47-3.93-1.74.14-2.26,1.59-1.66,6.24,1,7.38,3.34,19.45-1.24,21.39h0c-4.73,1.5-11.62-9.41-15.89-15.3-2.68-3.68-3.71-3.7-5.12-2.67C162.66,236.53,161.73,237.49,164,240.8Z" style="fill:#455a64"></path></g><g id="freepik--Table--inject-65"><polygon points="48.83 416.76 130.38 416.51 211.92 416.43 375 416.26 538.08 416.43 619.63 416.51 701.17 416.76 619.63 417 538.08 417.09 375 417.26 211.92 417.09 130.38 417 48.83 416.76" style="fill:#263238"></polygon></g><g id="freepik--Medicines--inject-65"><rect x="254.15" y="377.05" width="38.01" height="57.03" style="fill:#FF7B54"></rect><rect x="249.56" y="361.74" width="47.2" height="15.31" style="fill:#455a64"></rect><rect x="260.51" y="393.46" width="25.31" height="25.31" style="fill:#fff"></rect><polygon points="254.15 377.05 254.15 381.49 275.56 389.58 275.56 434.08 285.81 434.08 285.81 377.05 254.15 377.05" style="opacity:0.1"></polygon><path d="M242.38,432.77v0a4.78,4.78,0,0,1,4.79-4.77h9.48a4.78,4.78,0,0,1,4.79,4.77v0a4.8,4.8,0,0,1-4.79,4.79h-9.48A4.8,4.8,0,0,1,242.38,432.77Z" style="fill:#455a64"></path><path d="M242.38,432.77v0a4.78,4.78,0,0,1,4.79-4.77h4.75v9.58h-4.75A4.8,4.8,0,0,1,242.38,432.77Z" style="fill:#FF7B54"></path><path d="M307.42,432.77h0a4.78,4.78,0,0,1-4.78,4.78h-9.49a4.78,4.78,0,0,1-4.78-4.78h0a4.79,4.79,0,0,1,4.78-4.79h9.49A4.79,4.79,0,0,1,307.42,432.77Z" style="fill:#455a64"></path><path d="M307.42,432.77h0a4.78,4.78,0,0,1-4.78,4.78h-4.75V428h4.75A4.79,4.79,0,0,1,307.42,432.77Z" style="fill:#FF7B54"></path><path d="M318.18,434.72h0a4.79,4.79,0,0,1-6.76,0l-6.7-6.71a4.77,4.77,0,0,1,0-6.76h0a4.8,4.8,0,0,1,6.77,0l6.7,6.71A4.79,4.79,0,0,1,318.18,434.72Z" style="fill:#455a64"></path><path d="M318.18,434.72h0a4.79,4.79,0,0,1-6.76,0l-3.36-3.36,6.77-6.77,3.36,3.36A4.79,4.79,0,0,1,318.18,434.72Z" style="fill:#FF7B54"></path><path d="M274.82,442.34h0a4.78,4.78,0,0,1,4.79-4.77h9.48a4.78,4.78,0,0,1,4.79,4.77h0a4.79,4.79,0,0,1-4.79,4.79h-9.48A4.79,4.79,0,0,1,274.82,442.34Z" style="fill:#455a64"></path><path d="M274.82,442.34h0a4.78,4.78,0,0,1,4.79-4.77h4.74v9.57h-4.74A4.79,4.79,0,0,1,274.82,442.34Z" style="fill:#FF7B54"></path><path d="M471.93,363.5h27.21a8.48,8.48,0,0,1,8.48,8.48v63.58a3.17,3.17,0,0,1-3.17,3.17H466.63a3.17,3.17,0,0,1-3.17-3.17V372A8.48,8.48,0,0,1,471.93,363.5Z" style="fill:#FF7B54"></path><rect x="472.75" y="353.95" width="25.57" height="11.72" style="fill:#FF7B54"></rect><rect x="463.45" y="388" width="44.16" height="29.77" style="fill:#ebebeb"></rect><rect x="463.45" y="411.69" width="44.16" height="2.7" style="fill:#455a64"></rect><rect x="463.45" y="391.4" width="44.16" height="2.7" style="fill:#455a64"></rect><rect x="470.97" y="345.74" width="29.13" height="10.85" style="fill:#455a64"></rect><rect x="469.44" y="356.59" width="32.19" height="3.21" style="fill:#37474f"></rect><rect x="472.44" y="347.26" width="1.34" height="7.82" rx="0.56" style="fill:#37474f"></rect><rect x="474.93" y="347.26" width="1.34" height="7.82" rx="0.56" style="fill:#37474f"></rect><rect x="477.41" y="347.26" width="1.34" height="7.82" rx="0.56" style="fill:#37474f"></rect><rect x="479.9" y="347.26" width="1.34" height="7.82" rx="0.56" style="fill:#37474f"></rect><rect x="482.38" y="347.26" width="1.34" height="7.82" rx="0.56" style="fill:#37474f"></rect><rect x="484.87" y="347.26" width="1.34" height="7.82" rx="0.56" style="fill:#37474f"></rect><path d="M487.91,347.26h.23a.55.55,0,0,1,.55.55v6.71a.56.56,0,0,1-.56.56h-.23a.56.56,0,0,1-.56-.56v-6.71a.56.56,0,0,1,.56-.56Z" style="fill:#37474f"></path><rect x="489.84" y="347.26" width="1.34" height="7.82" rx="0.56" style="fill:#37474f"></rect><path d="M492.88,347.26h.23a.56.56,0,0,1,.56.56v6.71a.56.56,0,0,1-.56.56h-.23a.55.55,0,0,1-.55-.55v-6.71A.56.56,0,0,1,492.88,347.26Z" style="fill:#37474f"></path><rect x="494.81" y="347.26" width="1.34" height="7.82" rx="0.56" style="fill:#37474f"></rect><rect x="497.29" y="347.26" width="1.34" height="7.82" rx="0.56" style="fill:#37474f"></rect><rect x="384.44" y="442.64" width="24.81" height="3.27" transform="translate(-51.37 836.66) rotate(-89.43)" style="fill:#FF7B54"></rect><rect x="384.44" y="442.64" width="24.81" height="3.27" transform="translate(-51.37 836.66) rotate(-89.43)" style="opacity:0.1"></rect><rect x="411.52" y="442.45" width="15.19" height="3.27" transform="translate(-29.13 858.75) rotate(-89.43)" style="fill:#FF7B54"></rect><rect x="411.52" y="442.45" width="15.19" height="3.27" transform="translate(-29.13 858.75) rotate(-89.43)" style="opacity:0.1"></rect><rect x="403.95" y="434.48" width="8.06" height="19" transform="translate(-40.04 847.51) rotate(-89.43)" style="fill:#FF7B54"></rect><polygon points="401.59 439.88 400.47 447.93 398.44 447.91 398.52 439.85 401.59 439.88" style="opacity:0.2"></polygon><path d="M325.54,443.56c-3.29.08-6.59.11-9.88.12l-9.89,0-9.88-.16-4.95-.13c-1.64-.06-3.29-.1-4.94-.18,1.65-.05,3.3-.06,4.95-.09l4.94,0,9.89,0,9.88.16C319,443.33,322.25,443.42,325.54,443.56Z" style="fill:#263238"></path><rect x="352.63" y="410.23" width="17.76" height="67.39" transform="translate(-86 800.98) rotate(-89.43)" style="fill:#FF7B54"></rect><rect x="352.63" y="410.23" width="17.76" height="67.39" transform="translate(-86 800.98) rotate(-89.43)" style="fill:#fff;opacity:0.6000000000000001"></rect><rect x="353.37" y="411.8" width="13.08" height="64.2" transform="translate(-87.56 799.37) rotate(-89.43)" style="fill:#FF7B54"></rect><rect x="333.25" y="450" width="3.3" height="0.39" transform="translate(-118.61 780.59) rotate(-89.43)" style="fill:#263238"></rect><rect x="334.58" y="450.01" width="3.3" height="0.39" transform="translate(-117.33 781.9) rotate(-89.43)" style="fill:#263238"></rect><rect x="335.9" y="450.02" width="3.3" height="0.39" transform="translate(-116.03 783.24) rotate(-89.43)" style="fill:#263238"></rect><rect x="337.23" y="450.04" width="3.3" height="0.39" transform="translate(-114.72 784.59) rotate(-89.43)" style="fill:#263238"></rect><rect x="337.35" y="448.84" width="5.73" height="0.39" transform="translate(-112.19 784.75) rotate(-89.43)" style="fill:#263238"></rect><rect x="339.81" y="450.06" width="3.3" height="0.39" transform="translate(-112.2 787.19) rotate(-89.43)" style="fill:#263238"></rect><rect x="341.14" y="450.08" width="3.3" height="0.39" transform="translate(-110.89 788.54) rotate(-89.43)" style="fill:#263238"></rect><rect x="342.47" y="450.09" width="3.3" height="0.39" transform="translate(-109.58 789.9) rotate(-89.43)" style="fill:#263238"></rect><rect x="343.79" y="450.1" width="3.3" height="0.39" transform="translate(-108.28 791.23) rotate(-89.43)" style="fill:#263238"></rect><rect x="343.92" y="448.9" width="5.73" height="0.39" transform="translate(-105.77 791.37) rotate(-89.43)" style="fill:#263238"></rect><rect x="346.38" y="450.13" width="3.3" height="0.39" transform="translate(-105.76 793.83) rotate(-89.43)" style="fill:#263238"></rect><rect x="347.7" y="450.14" width="3.3" height="0.39" transform="translate(-104.44 795.2) rotate(-89.43)" style="fill:#263238"></rect><rect x="349.03" y="450.15" width="3.3" height="0.39" transform="translate(-103.15 796.52) rotate(-89.43)" style="fill:#263238"></rect><rect x="350.35" y="450.17" width="3.3" height="0.39" transform="translate(-101.87 797.83) rotate(-89.43)" style="fill:#263238"></rect><rect x="350.48" y="448.97" width="5.73" height="0.39" transform="translate(-99.33 798) rotate(-89.43)" style="fill:#263238"></rect><rect x="352.94" y="450.19" width="3.3" height="0.39" transform="translate(-99.32 800.46) rotate(-89.43)" style="fill:#263238"></rect><rect x="354.26" y="450.21" width="3.3" height="0.39" transform="translate(-98 801.82) rotate(-89.43)" style="fill:#263238"></rect><rect x="355.59" y="450.22" width="3.3" height="0.39" transform="matrix(0.01, -1, 1, 0.01, -96.74, 803.12)" style="fill:#263238"></rect><rect x="356.91" y="450.23" width="3.3" height="0.39" transform="translate(-95.42 804.49) rotate(-89.43)" style="fill:#263238"></rect><rect x="357.04" y="449.03" width="5.73" height="0.39" transform="translate(-92.89 804.64) rotate(-89.43)" style="fill:#263238"></rect><rect x="359.5" y="450.26" width="3.3" height="0.39" transform="translate(-92.88 807.1) rotate(-89.43)" style="fill:#263238"></rect><rect x="360.83" y="450.27" width="3.3" height="0.39" transform="translate(-91.58 808.44) rotate(-89.43)" style="fill:#263238"></rect><rect x="362.15" y="450.29" width="3.3" height="0.39" transform="translate(-90.31 809.75) rotate(-89.43)" style="fill:#263238"></rect><rect x="363.48" y="450.3" width="3.3" height="0.39" transform="translate(-88.97 811.13) rotate(-89.43)" style="fill:#263238"></rect><rect x="363.6" y="449.1" width="5.73" height="0.39" transform="translate(-86.47 811.25) rotate(-89.43)" style="fill:#263238"></rect><rect x="366.06" y="450.32" width="3.3" height="0.39" transform="translate(-86.46 813.71) rotate(-89.43)" style="fill:#263238"></rect><rect x="367.39" y="450.34" width="3.3" height="0.39" transform="translate(-85.16 815.05) rotate(-89.43)" style="fill:#263238"></rect><rect x="368.71" y="450.35" width="3.3" height="0.39" transform="translate(-83.86 816.39) rotate(-89.43)" style="fill:#263238"></rect><rect x="370.04" y="450.36" width="3.3" height="0.39" transform="translate(-82.54 817.75) rotate(-89.43)" style="fill:#263238"></rect><rect x="370.16" y="449.16" width="5.73" height="0.39" transform="translate(-80.05 817.87) rotate(-89.43)" style="fill:#263238"></rect><rect x="372.62" y="450.39" width="3.3" height="0.39" transform="translate(-80.02 820.35) rotate(-89.43)" style="fill:#263238"></rect><rect x="373.95" y="450.4" width="3.3" height="0.39" transform="translate(-78.72 821.69) rotate(-89.43)" style="fill:#263238"></rect><rect x="375.28" y="450.42" width="3.3" height="0.39" transform="translate(-77.42 823.03) rotate(-89.43)" style="fill:#263238"></rect><rect x="376.6" y="450.43" width="3.3" height="0.39" transform="translate(-76.13 824.35) rotate(-89.43)" style="fill:#263238"></rect><rect x="376.73" y="449.23" width="5.73" height="0.39" transform="translate(-73.61 824.51) rotate(-89.43)" style="fill:#263238"></rect><rect x="379.19" y="450.46" width="3.3" height="0.39" transform="translate(-73.59 826.98) rotate(-89.43)" style="fill:#263238"></rect><rect x="380.51" y="450.47" width="3.3" height="0.39" transform="translate(-72.29 828.32) rotate(-89.43)" style="fill:#263238"></rect><rect x="381.84" y="450.48" width="3.3" height="0.39" transform="translate(-70.98 829.67) rotate(-89.43)" style="fill:#263238"></rect><rect x="383.16" y="450.5" width="3.3" height="0.39" transform="translate(-69.7 830.98) rotate(-89.43)" style="fill:#263238"></rect><rect x="383.29" y="449.3" width="5.73" height="0.39" transform="translate(-67.16 831.15) rotate(-89.43)" style="fill:#263238"></rect><rect x="385.75" y="450.52" width="3.3" height="0.39" transform="translate(-67.16 833.6) rotate(-89.43)" style="fill:#263238"></rect><rect x="387.07" y="450.53" width="3.3" height="0.39" transform="translate(-65.88 834.92) rotate(-89.43)" style="fill:#263238"></rect><rect x="388.4" y="450.55" width="3.3" height="0.39" transform="translate(-64.56 836.28) rotate(-89.43)" style="fill:#263238"></rect><rect x="389.72" y="450.56" width="3.3" height="0.39" transform="translate(-63.27 837.61) rotate(-89.43)" style="fill:#263238"></rect><rect x="389.85" y="449.36" width="5.73" height="0.39" transform="translate(-60.75 837.76) rotate(-89.43)" style="fill:#263238"></rect><rect x="321.48" y="441.07" width="17.76" height="5.08" transform="translate(-116.53 769.52) rotate(-89.43)" style="fill:#263238"></rect><rect x="318.91" y="440.65" width="12" height="5.82" transform="translate(-121.87 764.02) rotate(-89.43)" style="fill:#FF7B54"></rect><polygon points="315.04 441.91 315.01 445 321.98 445.63 322.02 441.43 315.04 441.91" style="fill:#FF7B54"></polygon><polygon points="322.02 441.43 321.98 445.62 320 445.45 320.35 441.55 322.02 441.43" style="opacity:0.1"></polygon></g></svg>