<svg width="346" height="135" viewBox="0 0 346 135" fill="none" xmlns="http://www.w3.org/2000/svg">
<g clip-path="url(#clip0_241_4445)">
<path d="M38.403 60.6882H38.5496V64.5015H38.403V60.6882Z" fill="white"/>
<path d="M44.1207 94.8472C41.3352 94.2608 39.2827 92.0617 38.5497 89.4228L44.1207 94.8472Z" fill="white"/>
<path d="M19.0549 53.7977C19.0549 53.7977 19.0549 53.9463 19.0549 53.7977C19.0549 53.9463 18.9062 54.095 18.9062 54.095L18.7576 53.9463L19.0549 53.7977Z" fill="white"/>
<path d="M31.222 53.6541C31.0726 53.5048 31.0726 53.5048 31.0726 53.5048H31.222V53.6541Z" fill="white"/>
<path d="M46.0273 105.55V118.158H42.6553V108.628L31.3667 97.3398V55.8503C31.9531 55.5571 32.2463 54.9706 32.2463 54.2376C32.2463 54.2376 32.2463 54.2376 32.2463 54.091C32.2463 53.0647 31.3667 52.1851 30.3404 52.1851C29.3142 52.1851 28.4345 53.0647 28.4345 54.091V54.2376C28.4345 54.9706 28.8744 55.5571 29.3142 55.8503V98.2194L40.6028 109.508V118.158H37.3775V110.828L27.7015 101.152V77.2547C28.2879 76.9615 28.5811 76.2285 28.5811 75.6421C28.5811 74.6158 27.7015 73.7362 26.6753 73.7362C25.649 73.7362 24.7694 74.6158 24.7694 75.6421C24.7694 76.3751 25.0626 76.9615 25.649 77.2547V102.178L35.325 111.854V118.158H31.5133C30.487 118.158 29.6074 118.011 28.7277 117.865C27.9947 117.718 27.2617 117.571 26.6753 117.278C25.2092 116.838 24.0364 116.105 22.7169 115.372C21.8373 114.932 21.1042 114.199 20.3712 113.613C18.1721 111.414 16.5594 108.335 16.1196 105.11C15.973 104.377 15.973 103.644 15.973 102.764V31.3671C15.973 30.0476 16.1196 28.7281 16.4128 27.5553L24.6228 35.6186V48.2267L20.5178 52.3317C20.3712 52.1851 20.2246 52.1851 20.078 52.1851C19.6382 52.1851 19.0517 52.3317 18.7585 52.7715C18.4653 53.0647 18.1721 53.5046 18.1721 53.7978C18.1721 53.9444 18.1721 54.091 18.1721 54.091C18.1721 54.6774 18.3187 55.1172 18.7585 55.5571C19.1984 55.8503 19.6382 56.1435 20.078 56.1435C20.6644 56.1435 21.1042 55.9969 21.5441 55.5571C21.9839 55.1172 22.1305 54.5308 22.1305 54.091C22.1305 54.091 22.1305 53.9444 22.1305 53.7978L26.8219 49.1064V37.8177L33.2725 44.2684V92.795L46.0273 105.55Z" fill="white"/>
<path d="M53.7969 104.377V118.158H48.0793V104.67L35.3246 91.9153V70.6575L38.4033 67.5787V89.2764L38.6965 89.423L44.1209 94.8475L53.7969 104.377Z" fill="white"/>
<path d="M74.7616 21.2512V43.2421C70.6566 41.4828 65.9652 40.6032 60.6874 40.6032H45.8802C45.4404 40.6032 45.0005 40.6032 44.5607 40.7498V40.0168C45.1471 39.7236 45.4404 39.1371 45.4404 38.4041C45.4404 37.3779 44.5607 36.4982 43.3879 36.4982C42.215 36.4982 41.482 37.3779 41.482 38.4041C41.482 39.1371 41.7752 39.7236 42.3616 40.0168V41.4828C40.0159 42.6557 38.5499 45.148 38.5499 47.9335V60.1018L38.2567 60.2484L38.5499 60.395H38.6965V64.0602L38.5499 64.2068L35.3245 67.2855V43.2421L26.8214 34.5924V34.2991H26.3816L17.292 25.2096C19.6377 19.7851 25.0621 15.9734 31.3662 15.9734H57.6087C62.1534 15.9734 66.405 16.2666 70.3634 16.9996L74.7616 21.2512Z" fill="white"/>
<path d="M112 66.9918C112 68.8977 112 70.657 111.707 72.4162C111.12 80.7728 109.068 88.1031 105.403 94.4071C101.151 102.031 94.8472 107.895 86.6372 112C78.4273 116.105 68.7513 118.157 57.316 118.157H55.7033V103.497L47.4934 95.1402H60.688C66.1124 95.1402 70.8038 94.2605 74.7621 92.5013V98.9519C74.1757 99.2451 73.7359 99.9782 73.7359 100.711C73.7359 102.031 74.7621 103.057 75.935 103.057C77.1078 103.057 78.1341 102.031 78.1341 100.711C78.1341 99.9782 77.6943 99.2451 77.1078 98.9519V91.3284C78.1341 90.8886 79.0137 90.1556 79.8933 89.5691C80.1866 89.4225 80.4798 89.1293 80.6264 88.9827C81.7992 88.1031 82.8255 86.9302 83.8517 85.7574C83.9983 85.6108 83.9983 85.6108 83.9983 85.4642C84.7313 84.4379 85.4644 83.5583 86.0508 82.3854C88.3965 78.2805 89.4227 73.4425 89.4227 67.7248C89.4227 62.1538 88.2499 57.3158 85.9042 53.2108C83.8517 49.5457 80.773 46.467 76.9612 44.4145V20.2245L74.4689 17.7322C76.5214 18.172 78.5739 18.7584 80.4798 19.4915L80.0399 19.9313V37.0842C79.4535 37.3774 79.0137 38.1104 79.0137 38.9901C79.0137 40.3095 80.0399 41.3358 81.2128 41.3358C82.5322 41.3358 83.4119 40.3095 83.4119 38.9901C83.4119 38.257 82.9721 37.524 82.3856 37.0842V20.9575L82.8255 20.5177C83.4119 20.6643 83.8517 20.9575 84.4381 21.2507C85.1712 21.5439 85.7576 21.8371 86.4906 22.1304C86.6372 22.277 86.7838 22.277 86.9304 22.4236C89.1295 23.5964 91.182 24.7693 93.0879 26.2353V61.1276C92.5015 61.4208 92.0616 62.3004 92.0616 63.0334C92.0616 64.2063 93.0879 65.2325 94.4073 65.2325C95.5802 65.2325 96.6064 64.2063 96.6064 63.0334C96.6064 62.1538 96.1666 61.4208 95.5802 61.1276V27.9946C97.1929 29.3141 98.6589 30.7801 99.9784 32.2462V68.1647L96.8996 71.2434C96.753 71.0968 96.6064 71.0968 96.6064 71.0968C96.02 71.0968 95.4336 71.2434 94.9938 71.8298C94.5539 72.2696 94.4073 72.8561 94.4073 73.4425C94.4073 74.0289 94.5539 74.6153 94.9938 75.0551C95.8734 75.9348 97.3395 75.9348 98.2191 75.0551C98.8055 74.4687 98.9521 73.7357 98.8055 73.0027L102.617 69.1909V35.4715C103.644 36.791 104.523 38.257 105.403 39.7231C109.068 46.0271 111.12 53.3574 111.707 61.714C112 63.3267 112 65.0859 112 66.9918Z" fill="white"/>
</g>
<path d="M130.038 50.8844L142.71 22.8792H146.881L159.553 50.8844H154.389L151.608 44.4094H137.943L135.202 50.8844H130.038ZM144.736 28.4008L139.691 40.3576H149.86L144.815 28.4008H144.736Z" fill="white"/>
<path d="M166.267 50.8844V27.1296H156.654V22.8792H180.964V27.1296H171.351V50.8844H166.267Z" fill="white"/>
<path d="M178.063 50.8844L190.735 22.8792H194.906L207.578 50.8844H202.414L199.633 44.4094H185.968L183.227 50.8844H178.063ZM192.761 28.4008L187.716 40.3576H197.886L192.841 28.4008H192.761Z" fill="white"/>
<path d="M210.722 50.8844V22.8792H214.972L224.903 41.1918L234.794 22.8792H238.965V50.8844H234.357V32.0156L226.333 46.6339H223.354L215.33 32.0951V50.8844H210.722Z" fill="white"/>
<path d="M245.129 50.8844V22.8792H250.214V50.8844H245.129Z" fill="white"/>
<path d="M256.301 50.8844V22.8792H260.115L275.17 42.4232V22.8792H279.897V50.8844H276.123L261.028 31.2609V50.8844H256.301Z" fill="white"/>
<path d="M286.017 50.8844V22.8792H304.647V26.931H290.903V34.6374H303.773V38.6892H290.903V46.8325H304.647V50.8844H286.017Z" fill="white"/>
<path d="M318.984 51.2816C316.786 51.2816 314.747 51.0035 312.866 50.4474C310.986 49.8648 309.397 49.0836 308.099 48.1037L309.649 44.0916C310.946 45.0185 312.363 45.7335 313.899 46.2367C315.462 46.7399 317.156 46.9914 318.984 46.9914C321.076 46.9914 322.599 46.6472 323.552 45.9586C324.505 45.2436 324.982 44.33 324.982 43.2177C324.982 42.2908 324.638 41.5625 323.949 41.0329C323.287 40.5032 322.135 40.0663 320.493 39.722L316.124 38.8084C311.145 37.7491 308.656 35.1935 308.656 31.1417C308.656 29.3939 309.119 27.8711 310.046 26.5735C310.973 25.2758 312.257 24.2695 313.899 23.5545C315.541 22.8394 317.435 22.4819 319.58 22.4819C321.486 22.4819 323.274 22.7732 324.942 23.3559C326.611 23.912 328.001 24.7065 329.113 25.7393L327.564 29.5527C325.366 27.699 322.691 26.7721 319.54 26.7721C317.713 26.7721 316.283 27.1561 315.25 27.9241C314.217 28.6921 313.701 29.6984 313.701 30.9431C313.701 31.8964 314.018 32.6644 314.654 33.247C315.289 33.8032 316.375 34.2401 317.911 34.5579L322.241 35.4716C324.863 36.0277 326.809 36.9016 328.08 38.0933C329.378 39.285 330.027 40.874 330.027 42.8602C330.027 44.5286 329.577 45.9983 328.676 47.2695C327.776 48.5407 326.492 49.5338 324.823 50.2488C323.181 50.9373 321.235 51.2816 318.984 51.2816Z" fill="white"/>
<path d="M147.009 110.835V69.7889H130.443V58.6954H177.184V69.7889H160.617V110.835H147.009Z" fill="white"/>
<path d="M182.328 110.835V58.6954H219.158V69.1973H195.344V79.1075H217.457V89.6093H195.344V100.333H219.158V110.835H182.328Z" fill="white"/>
<path d="M254.229 111.648C248.461 111.648 243.505 110.539 239.364 108.32C235.222 106.102 232.042 102.971 229.823 98.9278C227.654 94.8849 226.569 90.1516 226.569 84.7282C226.569 79.3047 227.654 74.5961 229.823 70.6024C232.042 66.5595 235.222 63.4286 239.364 61.2099C243.505 58.9912 248.461 57.8819 254.229 57.8819C257.68 57.8819 261.009 58.4242 264.213 59.5089C267.418 60.5443 270.007 61.9249 271.979 63.6505L267.911 74.3742C265.742 72.7965 263.572 71.6378 261.403 70.8983C259.234 70.1094 257.015 69.715 254.747 69.715C250.162 69.715 246.71 71.0215 244.393 73.6347C242.076 76.1985 240.917 79.8963 240.917 84.7282C240.917 89.6093 242.076 93.3564 244.393 95.9696C246.71 98.5334 250.162 99.8153 254.747 99.8153C257.015 99.8153 259.234 99.4455 261.403 98.706C263.572 97.9171 265.742 96.7338 267.911 95.156L271.979 105.88C270.007 107.605 267.418 109.011 264.213 110.095C261.009 111.131 257.68 111.648 254.229 111.648Z" fill="white"/>
<path d="M278.674 110.835V58.6954H292.282V78.8116H313.803V58.6954H327.337V110.835H313.803V89.9791H292.282V110.835H278.674Z" fill="white"/>
<defs>
<clipPath id="clip0_241_4445">
<rect width="96.027" height="102.184" fill="white" transform="translate(15.973 15.973)"/>
</clipPath>
</defs>
</svg>
