<svg width="51" height="51" viewBox="0 0 51 51" fill="none" xmlns="http://www.w3.org/2000/svg">
<rect width="51" height="51" rx="14" fill="#FF7B54" fill-opacity="0.15"/>
<path d="M37.1 16.8H31.3V13.9C31.3 12.305 29.995 11 28.4 11H22.6C21.005 11 19.7 12.305 19.7 13.9V16.8H13.9C12.305 16.8 11 18.105 11 19.7V37.1C11 38.695 12.305 40 13.9 40H37.1C38.695 40 40 38.695 40 37.1V19.7C40 18.105 38.695 16.8 37.1 16.8ZM22.6 13.9H28.4V16.8H22.6V13.9ZM37.1 37.1H13.9V19.7H37.1V37.1Z" fill="#FF7B54"/>
<path d="M26.95 22.6001H24.05V26.9501H19.7V29.8501H24.05V34.2001H26.95V29.8501H31.3V26.9501H26.95V22.6001Z" fill="#FF7B54"/>
</svg>
