<svg width="55" height="52" viewBox="0 0 55 52" fill="none" xmlns="http://www.w3.org/2000/svg">
<rect width="55" height="52" rx="8" fill="#E1EBFF"/>
<path fill-rule="evenodd" clip-rule="evenodd" d="M21 19C20.4477 19 20 19.4477 20 20V34C20 34.5523 20.4477 35 21 35H35C35.5523 35 36 34.5523 36 34V20C36 19.4477 35.5523 19 35 19H21ZM18 20C18 18.3431 19.3431 17 21 17H35C36.6569 17 38 18.3431 38 20V34C38 35.6569 36.6569 37 35 37H21C19.3431 37 18 35.6569 18 34V20Z" fill="#4988FC"/>
<path fill-rule="evenodd" clip-rule="evenodd" d="M32 15C32.5523 15 33 15.4477 33 16V20C33 20.5523 32.5523 21 32 21C31.4477 21 31 20.5523 31 20V16C31 15.4477 31.4477 15 32 15Z" fill="#4988FC"/>
<path fill-rule="evenodd" clip-rule="evenodd" d="M24 15C24.5523 15 25 15.4477 25 16V20C25 20.5523 24.5523 21 24 21C23.4477 21 23 20.5523 23 20V16C23 15.4477 23.4477 15 24 15Z" fill="#4988FC"/>
<path fill-rule="evenodd" clip-rule="evenodd" d="M18 24C18 23.4477 18.4477 23 19 23H37C37.5523 23 38 23.4477 38 24C38 24.5523 37.5523 25 37 25H19C18.4477 25 18 24.5523 18 24Z" fill="#4988FC"/>
</svg>
