<svg width="24" height="24" viewBox="0 0 24 24" fill="none" xmlns="http://www.w3.org/2000/svg">
<g clip-path="url(#clip0_2_779)">
<path fill-rule="evenodd" clip-rule="evenodd" d="M9.00007 1.42871C9.55787 1.42871 10.052 1.78838 10.2235 2.31916L15.0001 17.1037L16.7766 11.6049C16.9481 11.0741 17.4423 10.7144 18.0001 10.7144H22.0001C22.7102 10.7144 23.2858 11.2901 23.2858 12.0001C23.2858 12.7102 22.7102 13.2859 22.0001 13.2859H18.9358L16.2235 21.6811C16.052 22.2119 15.5579 22.5716 15.0001 22.5716C14.4423 22.5716 13.9481 22.2119 13.7766 21.6811L9.00007 6.89656L7.22352 12.3954C7.05203 12.9262 6.55787 13.2859 6.00007 13.2859H2.00007C1.28999 13.2859 0.714355 12.7102 0.714355 12.0001C0.714355 11.2901 1.28999 10.7144 2.00007 10.7144H5.0643L7.77662 2.31916C7.9481 1.78838 8.44227 1.42871 9.00007 1.42871Z" fill="black"/>
</g>
<defs>
<clipPath id="clip0_2_779">
<rect width="20" height="20" fill="black" transform="translate(2 2)"/>
</clipPath>
</defs>
</svg>
