<svg width="18" height="18" viewBox="0 0 18 18" fill="none" xmlns="http://www.w3.org/2000/svg">
<path fill-rule="evenodd" clip-rule="evenodd" d="M1.40901 2.90901C1.83097 2.48705 2.40326 2.25 3 2.25H8.25C8.66421 2.25 9 2.58579 9 3C9 3.41421 8.66421 3.75 8.25 3.75H3C2.80109 3.75 2.61032 3.82902 2.46967 3.96967C2.32902 4.11032 2.25 4.30109 2.25 4.5V15C2.25 15.1989 2.32902 15.3897 2.46967 15.5303C2.61032 15.671 2.80109 15.75 3 15.75H13.5C13.6989 15.75 13.8897 15.671 14.0303 15.5303C14.171 15.3897 14.25 15.1989 14.25 15V9.75C14.25 9.33579 14.5858 9 15 9C15.4142 9 15.75 9.33579 15.75 9.75V15C15.75 15.5967 15.5129 16.169 15.091 16.591C14.669 17.0129 14.0967 17.25 13.5 17.25H3C2.40326 17.25 1.83097 17.0129 1.40901 16.591C0.987053 16.169 0.75 15.5967 0.75 15V4.5C0.75 3.90326 0.987053 3.33097 1.40901 2.90901Z" fill="#FB7886"/>
<path fill-rule="evenodd" clip-rule="evenodd" d="M15 2.15906C14.777 2.15906 14.5631 2.24766 14.4053 2.40538L7.42724 9.38349L7.03079 10.9693L8.61658 10.5728L15.5947 3.59472C15.7524 3.437 15.841 3.22309 15.841 3.00005C15.841 2.777 15.7524 2.56309 15.5947 2.40538C15.437 2.24766 15.2231 2.15906 15 2.15906ZM13.3447 1.34472C13.7837 0.905697 14.3791 0.659058 15 0.659058C15.6209 0.659058 16.2163 0.905697 16.6553 1.34472C17.0944 1.78374 17.341 2.37918 17.341 3.00005C17.341 3.62092 17.0944 4.21636 16.6553 4.65538L9.53035 11.7804C9.43423 11.8765 9.31379 11.9447 9.18192 11.9777L6.18192 12.7277C5.92634 12.7915 5.65597 12.7167 5.46969 12.5304C5.2834 12.3441 5.20851 12.0737 5.27241 11.8181L6.02241 8.81815C6.05538 8.68627 6.12357 8.56584 6.21969 8.46972L13.3447 1.34472Z" fill="#FB7886"/>
</svg>
