<svg width="25" height="24" viewBox="0 0 25 24" fill="none" xmlns="http://www.w3.org/2000/svg">
<g clip-path="url(#clip0_2_3289)">
<path fill-rule="evenodd" clip-rule="evenodd" d="M10.6339 2.2833C11.0832 2.03035 11.5901 1.89746 12.1057 1.89746C12.6213 1.89746 13.1282 2.03035 13.5775 2.2833C14.0268 2.53626 14.4033 2.90074 14.6707 3.34158L14.6736 3.34633L23.1436 17.4863L23.1517 17.5001C23.4137 17.9538 23.5523 18.4681 23.5537 18.9919C23.5552 19.5158 23.4195 20.0308 23.1601 20.4859C22.9007 20.941 22.5266 21.3203 22.0752 21.5859C21.6237 21.8516 21.1105 21.9944 20.5867 22.0001L20.5757 22.0003L3.62474 22.0002C3.10094 21.9944 2.58778 21.8516 2.1363 21.5859C1.68483 21.3203 1.31079 20.941 1.05138 20.4859C0.791979 20.0308 0.65626 19.5158 0.657727 18.9919C0.659193 18.4681 0.797796 17.9538 1.05974 17.5001L1.06787 17.4863L9.53787 3.34633L10.3957 3.86019L9.54073 3.34158C9.80814 2.90074 10.1847 2.53626 10.6339 2.2833ZM11.2519 4.37684L2.78842 18.506C2.70324 18.6558 2.6582 18.8251 2.65772 18.9975C2.65723 19.1721 2.70247 19.3438 2.78894 19.4955C2.87541 19.6472 3.00009 19.7736 3.15058 19.8622C3.29975 19.95 3.46913 19.9975 3.64213 20.0002H20.5693C20.7423 19.9975 20.9117 19.95 21.0609 19.8622C21.2114 19.7736 21.3361 19.6472 21.4225 19.4955C21.509 19.3438 21.5542 19.1721 21.5537 18.9975C21.5533 18.8251 21.5082 18.6559 21.4231 18.5061L12.9607 4.37883C12.9603 4.37817 12.9599 4.37751 12.9595 4.37684C12.8705 4.23079 12.7454 4.11001 12.5963 4.02607C12.4466 3.94176 12.2776 3.89746 12.1057 3.89746C11.9339 3.89746 11.7649 3.94176 11.6151 4.02607C11.466 4.11001 11.341 4.23079 11.2519 4.37684Z" fill="black"/>
<path d="M12.106 9V13" stroke="black" stroke-width="2" stroke-linecap="round" stroke-linejoin="round"/>
<path d="M12.106 17H12.116" stroke="black" stroke-width="2" stroke-linecap="round" stroke-linejoin="round"/>
</g>
<defs>
<clipPath id="clip0_2_3289">
<rect width="24" height="24" fill="black" transform="translate(0.105957)"/>
</clipPath>
</defs>
</svg>
