<svg width="25" height="25" viewBox="0 0 25 25" fill="none" xmlns="http://www.w3.org/2000/svg">
<path d="M12.3999 13.7524C12.9522 13.7524 13.3999 13.3047 13.3999 12.7524C13.3999 12.2002 12.9522 11.7524 12.3999 11.7524C11.8476 11.7524 11.3999 12.2002 11.3999 12.7524C11.3999 13.3047 11.8476 13.7524 12.3999 13.7524Z" stroke="#5C5C5C" stroke-width="2" stroke-linecap="round" stroke-linejoin="round"/>
<path d="M19.3999 13.7524C19.9522 13.7524 20.3999 13.3047 20.3999 12.7524C20.3999 12.2002 19.9522 11.7524 19.3999 11.7524C18.8476 11.7524 18.3999 12.2002 18.3999 12.7524C18.3999 13.3047 18.8476 13.7524 19.3999 13.7524Z" stroke="#5C5C5C" stroke-width="2" stroke-linecap="round" stroke-linejoin="round"/>
<path d="M5.3999 13.7524C5.95219 13.7524 6.3999 13.3047 6.3999 12.7524C6.3999 12.2002 5.95219 11.7524 5.3999 11.7524C4.84762 11.7524 4.3999 12.2002 4.3999 12.7524C4.3999 13.3047 4.84762 13.7524 5.3999 13.7524Z" stroke="#5C5C5C" stroke-width="2" stroke-linecap="round" stroke-linejoin="round"/>
</svg>
