<svg width="51" height="51" viewBox="0 0 51 51" fill="none" xmlns="http://www.w3.org/2000/svg">
<rect width="51" height="51" rx="14" fill="#FF7B54" fill-opacity="0.15"/>
<path fill-rule="evenodd" clip-rule="evenodd" d="M14.0526 34.8947C14.0526 36.5807 15.4193 37.9474 17.1053 37.9474C18.7912 37.9474 20.1579 36.5807 20.1579 34.8947C20.1579 33.2088 18.7912 31.8421 17.1053 31.8421C15.4193 31.8421 14.0526 33.2088 14.0526 34.8947ZM17.1053 41C13.7334 41 11 38.2666 11 34.8947C11 31.5229 13.7334 28.7895 17.1053 28.7895C20.4771 28.7895 23.2105 31.5229 23.2105 34.8947C23.2105 38.2666 20.4771 41 17.1053 41Z" fill="#FF7B54"/>
<path fill-rule="evenodd" clip-rule="evenodd" d="M30.8421 34.8947C30.8421 36.5807 32.2088 37.9474 33.8947 37.9474C35.5806 37.9474 36.9473 36.5807 36.9473 34.8947C36.9473 33.2088 35.5806 31.8421 33.8947 31.8421C32.2088 31.8421 30.8421 33.2088 30.8421 34.8947ZM33.8947 41C30.5228 41 27.7894 38.2666 27.7894 34.8947C27.7894 31.5229 30.5228 28.7895 33.8947 28.7895C37.2665 28.7895 40 31.5229 40 34.8947C40 38.2666 37.2665 41 33.8947 41Z" fill="#FF7B54"/>
<path fill-rule="evenodd" clip-rule="evenodd" d="M24.404 25.4037C24.8758 24.9318 25.6409 24.9318 26.1128 25.4037L30.9461 30.2371C31.418 30.7089 31.418 31.474 30.9461 31.9459C30.4743 32.4178 29.7092 32.4178 29.2373 31.9459L24.404 27.1126C23.9321 26.6407 23.9321 25.8756 24.404 25.4037Z" fill="#FF7B54"/>
<path fill-rule="evenodd" clip-rule="evenodd" d="M25.4212 24.7235C24.6176 24.7242 23.9656 24.0733 23.9649 23.2698L23.9546 11.9008C23.9539 11.0972 24.6047 10.4451 25.4083 10.4444C26.2119 10.4437 26.8639 11.0945 26.8647 11.8981L26.875 23.2671C26.8757 24.0707 26.2248 24.7227 25.4212 24.7235Z" fill="#FF7B54"/>
<path fill-rule="evenodd" clip-rule="evenodd" d="M20.0611 31.9387C19.5796 31.4572 19.5796 30.6765 20.0611 30.195L24.8451 25.4109C25.3266 24.9294 26.1073 24.9294 26.5888 25.4109C27.0703 25.8925 27.0703 26.6731 26.5888 27.1547L21.8048 31.9387C21.3233 32.4202 20.5426 32.4202 20.0611 31.9387Z" fill="#FF7B54"/>
</svg>
