<svg width="24" height="24" viewBox="0 0 24 24" fill="none" xmlns="http://www.w3.org/2000/svg">
<path fill-rule="evenodd" clip-rule="evenodd" d="M4.10526 17.7895C4.10526 18.9522 5.04782 19.8947 6.21053 19.8947C7.37323 19.8947 8.31579 18.9522 8.31579 17.7895C8.31579 16.6268 7.37323 15.6842 6.21053 15.6842C5.04782 15.6842 4.10526 16.6268 4.10526 17.7895ZM6.21053 22C3.88512 22 2 20.1149 2 17.7895C2 15.4641 3.88512 13.5789 6.21053 13.5789C8.53594 13.5789 10.4211 15.4641 10.4211 17.7895C10.4211 20.1149 8.53594 22 6.21053 22Z" fill="black"/>
<path fill-rule="evenodd" clip-rule="evenodd" d="M15.6844 17.7895C15.6844 18.9522 16.6269 19.8947 17.7896 19.8947C18.9523 19.8947 19.8949 18.9522 19.8949 17.7895C19.8949 16.6268 18.9523 15.6842 17.7896 15.6842C16.6269 15.6842 15.6844 16.6268 15.6844 17.7895ZM17.7896 22C15.4642 22 13.5791 20.1149 13.5791 17.7895C13.5791 15.4641 15.4642 13.5789 17.7896 13.5789C20.115 13.5789 22.0002 15.4641 22.0002 17.7895C22.0002 20.1149 20.115 22 17.7896 22Z" fill="black"/>
<path fill-rule="evenodd" clip-rule="evenodd" d="M11.2441 11.2441C11.5695 10.9186 12.0972 10.9186 12.4226 11.2441L15.7559 14.5774C16.0814 14.9028 16.0814 15.4305 15.7559 15.7559C15.4305 16.0814 14.9028 16.0814 14.5774 15.7559L11.2441 12.4226C10.9186 12.0972 10.9186 11.5695 11.2441 11.2441Z" fill="black"/>
<path fill-rule="evenodd" clip-rule="evenodd" d="M11.9457 10.7748C11.3915 10.7753 10.9419 10.3264 10.9413 9.77221L10.9343 1.93152C10.9338 1.37732 11.3826 0.927638 11.9368 0.927136C12.491 0.926635 12.9407 1.3755 12.9412 1.9297L12.9483 9.77039C12.9488 10.3246 12.4999 10.7743 11.9457 10.7748Z" fill="black"/>
<path fill-rule="evenodd" clip-rule="evenodd" d="M8.24906 15.7509C7.91698 15.4189 7.91698 14.8805 8.24906 14.5484L11.5484 11.2491C11.8805 10.917 12.4189 10.917 12.7509 11.2491C13.083 11.5811 13.083 12.1195 12.7509 12.4516L9.45162 15.7509C9.11954 16.083 8.58114 16.083 8.24906 15.7509Z" fill="black"/>
</svg>
