<svg width="51" height="51" viewBox="0 0 51 51" fill="none" xmlns="http://www.w3.org/2000/svg">
<rect width="51" height="51" rx="14" fill="#FF7B54" fill-opacity="0.15"/>
<path d="M25.5 22.6C28.6769 22.6 31.25 20.0045 31.25 16.8C31.25 13.5955 28.6769 11 25.5 11C22.3231 11 19.75 13.5955 19.75 16.8C19.75 20.0045 22.3231 22.6 25.5 22.6ZM25.5 13.9C27.0813 13.9 28.375 15.205 28.375 16.8C28.375 18.395 27.0813 19.7 25.5 19.7C23.9187 19.7 22.625 18.395 22.625 16.8C22.625 15.205 23.9187 13.9 25.5 13.9ZM34.6856 26.312C32.2706 25.065 29.1369 24.05 25.5 24.05C21.8631 24.05 18.7294 25.065 16.3144 26.312C14.8769 27.0515 14 28.545 14 30.169V40H16.875V30.169C16.875 29.618 17.1625 29.125 17.6225 28.893C19.3331 28.0085 22.0931 26.95 25.5 26.95C26.5925 26.95 27.6131 27.0515 28.5619 27.24L26.3337 32.025H22.2656C20.0806 32.025 18.3125 33.8085 18.3125 36.0125C18.3125 38.2165 20.0806 40 22.2656 40H25.3994H34.125C35.7063 40 37 38.695 37 37.1V30.169C37 28.545 36.1231 27.0515 34.6856 26.312ZM23.9762 37.1H22.2656C21.6763 37.1 21.1875 36.607 21.1875 36.0125C21.1875 35.418 21.6763 34.925 22.2656 34.925H24.9825L23.9762 37.1ZM34.125 37.1H27.1531L31.3794 28.0085C32.1556 28.2985 32.8312 28.603 33.3919 28.893C33.8375 29.125 34.125 29.618 34.125 30.169V37.1Z" fill="#FF7B54"/>
</svg>
