<svg width="51" height="51" viewBox="0 0 51 51" fill="none" xmlns="http://www.w3.org/2000/svg">
<rect width="51" height="51" rx="14" fill="#FF7B54" fill-opacity="0.15"/>
<path fill-rule="evenodd" clip-rule="evenodd" d="M15.8483 12.3483C16.5516 11.6451 17.5054 11.25 18.5 11.25H28.5C28.8315 11.25 29.1495 11.3817 29.3839 11.6161L36.8839 19.1161C37.1183 19.3505 37.25 19.6685 37.25 20V35C37.25 35.9946 36.8549 36.9484 36.1517 37.6517C35.4484 38.3549 34.4946 38.75 33.5 38.75H18.5C17.5054 38.75 16.5516 38.3549 15.8483 37.6517C15.1451 36.9484 14.75 35.9946 14.75 35V15C14.75 14.0054 15.1451 13.0516 15.8483 12.3483ZM18.5 13.75C18.1685 13.75 17.8505 13.8817 17.6161 14.1161C17.3817 14.3505 17.25 14.6685 17.25 15V35C17.25 35.3315 17.3817 35.6495 17.6161 35.8839C17.8505 36.1183 18.1685 36.25 18.5 36.25H33.5C33.8315 36.25 34.1495 36.1183 34.3839 35.8839C34.6183 35.6495 34.75 35.3315 34.75 35V20.5178L27.9822 13.75H18.5Z" fill="#FF7B54"/>
<path fill-rule="evenodd" clip-rule="evenodd" d="M28.5 11.25C29.1904 11.25 29.75 11.8096 29.75 12.5V18.75H36C36.6904 18.75 37.25 19.3096 37.25 20C37.25 20.6904 36.6904 21.25 36 21.25H28.5C27.8096 21.25 27.25 20.6904 27.25 20V12.5C27.25 11.8096 27.8096 11.25 28.5 11.25Z" fill="#FF7B54"/>
<path fill-rule="evenodd" clip-rule="evenodd" d="M19.75 26.25C19.75 25.5596 20.3096 25 21 25H31C31.6904 25 32.25 25.5596 32.25 26.25C32.25 26.9404 31.6904 27.5 31 27.5H21C20.3096 27.5 19.75 26.9404 19.75 26.25Z" fill="#FF7B54"/>
<path fill-rule="evenodd" clip-rule="evenodd" d="M19.75 31.25C19.75 30.5596 20.3096 30 21 30H31C31.6904 30 32.25 30.5596 32.25 31.25C32.25 31.9404 31.6904 32.5 31 32.5H21C20.3096 32.5 19.75 31.9404 19.75 31.25Z" fill="#FF7B54"/>
<path fill-rule="evenodd" clip-rule="evenodd" d="M19.75 21.25C19.75 20.5596 20.3096 20 21 20H23.5C24.1904 20 24.75 20.5596 24.75 21.25C24.75 21.9404 24.1904 22.5 23.5 22.5H21C20.3096 22.5 19.75 21.9404 19.75 21.25Z" fill="#FF7B54"/>
</svg>
